<svg width="24" height="24" viewBox="0 0 24 24" fill="none" xmlns="http://www.w3.org/2000/svg">
<path d="M20.4853 3.51469C18.2188 1.24823 15.2053 0 12 0C8.79469 0 5.78123 1.24823 3.51469 3.51469C1.24823 5.78123 0 8.79469 0 12C0 15.2053 1.24823 18.2188 3.51469 20.4853C5.78123 22.7518 8.79469 24 12 24C15.2053 24 18.2188 22.7518 20.4853 20.4853C22.7518 18.2188 24 15.2053 24 12C24 8.79469 22.7518 5.78123 20.4853 3.51469ZM12 1.40625C14.6682 1.40625 17.1088 2.39817 18.9735 4.03214L15.701 7.30463C14.6821 6.49983 13.3962 6.01884 12 6.01884C10.6038 6.01884 9.31791 6.49983 8.29908 7.30463L5.02659 4.03214C6.89119 2.39817 9.33183 1.40625 12 1.40625ZM16.5749 12C16.5749 14.5226 14.5226 16.5749 12 16.5749C9.47738 16.5749 7.42509 14.5226 7.42509 12C7.42509 9.47738 9.47738 7.42509 12 7.42509C14.5226 7.42509 16.5749 9.47738 16.5749 12ZM1.40625 12C1.40625 9.33178 2.39822 6.89114 4.03223 5.0265L7.30472 8.29898C6.49988 9.31786 6.01884 10.6038 6.01884 12C6.01884 13.3962 6.49983 14.6821 7.30463 15.701L4.03214 18.9735C2.39817 17.1088 1.40625 14.6682 1.40625 12ZM12 22.5938C9.33178 22.5938 6.89114 21.6018 5.02645 19.9678L8.29894 16.6953C9.31781 17.5001 10.6037 17.9811 12 17.9811C13.3962 17.9811 14.6821 17.5001 15.701 16.6952L18.9735 19.9677C17.1089 21.6018 14.6682 22.5938 12 22.5938ZM19.9679 18.9734L16.6954 15.7009C17.5002 14.682 17.9812 13.3962 17.9812 12C17.9812 10.6038 17.5002 9.31786 16.6953 8.29898L19.9678 5.0265C21.6018 6.89114 22.5938 9.33178 22.5938 12C22.5938 14.6682 21.6018 17.1088 19.9679 18.9734Z" fill="#253D4E"/>
</svg>
