<svg width="33" height="27" viewBox="0 0 33 27" fill="none" xmlns="http://www.w3.org/2000/svg">
<g clip-path="url(#clip0)">
<path fill-rule="evenodd" clip-rule="evenodd" d="M7.03748 0.601135C5.16769 0.601135 3.78414 2.22715 3.8461 3.99052C3.90555 5.68464 3.8283 7.87877 3.27237 9.66809C2.71446 11.4624 1.77157 12.5995 0.23114 12.7454V14.3932C1.77157 14.5395 2.71446 15.6759 3.27231 17.4705C3.8283 19.2599 3.90549 21.454 3.84603 23.1481C3.78408 24.9112 5.16763 26.5375 7.03773 26.5375H26.1968C28.0666 26.5375 29.4499 24.9115 29.388 23.1481C29.3285 21.454 29.4058 19.2599 29.9617 17.4705C30.5196 15.6759 31.4602 14.539 33.0007 14.3932V12.7454C31.4603 12.5992 30.5197 11.4627 29.9617 9.66809C29.4057 7.87903 29.3285 5.68464 29.388 3.99052C29.4499 2.2274 28.0666 0.601135 26.1968 0.601135H7.03722H7.03748ZM22.4478 16.5667C22.4478 18.9947 20.6249 20.4673 17.5998 20.4673H12.4503C12.303 20.4673 12.1617 20.4092 12.0575 20.3057C11.9534 20.2022 11.8949 20.0618 11.8949 19.9155V7.22322C11.8949 7.07686 11.9534 6.9365 12.0575 6.83301C12.1617 6.72952 12.303 6.67138 12.4503 6.67138H17.5705C20.0929 6.67138 21.7484 8.02891 21.7484 10.1132C21.7484 11.5761 20.6347 12.8857 19.216 13.1151V13.1915C21.1473 13.4019 22.4478 14.731 22.4478 16.5667ZM17.0383 8.42069H14.1021V12.5414H16.5751C18.4869 12.5414 19.541 11.7765 19.541 10.4094C19.5409 9.12814 18.6346 8.42069 17.0383 8.42069ZM14.1021 14.1763V18.7174H17.1464C19.1369 18.7174 20.1912 17.9239 20.1912 16.4325C20.1912 14.9412 19.1073 14.1761 17.0184 14.1761H14.1021V14.1763Z" fill="#A259FF"/>
</g>
<defs>
<clipPath id="clip0">
<rect width="32.7696" height="25.9426" fill="white" transform="translate(0.23114 0.5979)"/>
</clipPath>
</defs>
</svg>
