<svg width="35" height="27" viewBox="0 0 35 27" fill="none" xmlns="http://www.w3.org/2000/svg">
<g clip-path="url(#clip0)">
<path d="M30.0861 15.5091C28.8866 15.5154 27.8441 15.8061 26.9712 16.2357C26.6509 15.5976 26.3306 15.0289 26.2741 14.6119C26.2113 14.1254 26.1359 13.8285 26.2113 13.2472C26.2867 12.6659 26.6258 11.8383 26.6195 11.7751C26.6132 11.7119 26.5441 11.4149 25.8533 11.4086C25.1625 11.4023 24.5659 11.5413 24.4969 11.7245C24.4278 11.9078 24.2959 12.3248 24.208 12.7544C24.0887 13.3862 22.8264 15.6418 22.1042 16.8233C21.8718 16.3621 21.6708 15.9577 21.6269 15.6355C21.5641 15.149 21.4887 14.852 21.5641 14.2708C21.6394 13.6895 21.9786 12.8618 21.9723 12.7986C21.966 12.7354 21.8969 12.4385 21.2061 12.4322C20.5153 12.4258 19.9187 12.5648 19.8496 12.7481C19.7805 12.9313 19.7052 13.3609 19.5607 13.7779C19.4163 14.1949 17.7395 17.9606 17.2999 18.9336C17.0738 19.4327 16.8792 19.8308 16.741 20.1025C16.741 20.1025 16.7347 20.1214 16.7159 20.153C16.5966 20.3868 16.5275 20.5131 16.5275 20.5131C16.5275 20.5131 16.5275 20.5131 16.5275 20.5195C16.4333 20.6901 16.3328 20.848 16.2826 20.848C16.2449 20.848 16.1758 20.3931 16.2951 19.7739C16.5463 18.466 17.1429 16.4316 17.1366 16.3621C17.1366 16.3242 17.2497 15.9704 16.7473 15.7871C16.2574 15.6039 16.0816 15.9072 16.0376 15.9072C15.9937 15.9072 15.9623 16.0146 15.9623 16.0146C15.9623 16.0146 16.5086 13.7274 14.9198 13.7274C13.9275 13.7274 12.5585 14.8204 11.8802 15.8061C11.4532 16.0399 10.5426 16.539 9.56919 17.076C9.19866 17.2845 8.81558 17.493 8.45762 17.6889C8.4325 17.6636 8.40738 17.632 8.38226 17.6068C6.46057 15.5407 2.90606 14.0812 3.05678 11.3075C3.1133 10.2966 3.4587 7.64296 9.88319 4.42068C15.171 1.79862 19.3786 2.52522 20.1071 4.13636C21.1496 6.43619 17.8526 10.7073 12.3889 11.3265C10.304 11.5603 9.21123 10.7515 8.9349 10.4482C8.64602 10.1323 8.60206 10.1134 8.4953 10.1766C8.31946 10.2713 8.4325 10.5557 8.4953 10.7199C8.65858 11.1496 9.33055 11.9078 10.4672 12.2805C11.472 12.6091 13.915 12.7923 16.8729 11.6424C20.1825 10.3535 22.7698 6.77105 22.01 3.7699C21.2501 0.724527 16.226 -0.280068 11.472 1.41953C8.64602 2.43044 5.58136 4.02263 3.37706 6.095C0.758285 8.5591 0.343802 10.701 0.513363 11.5982C1.12253 14.7825 5.48716 16.8549 7.23301 18.3902C7.14509 18.4408 7.06345 18.485 6.99437 18.5229C6.12144 18.9589 2.79302 20.709 1.96405 22.5602C1.02205 24.6579 2.11477 26.1616 2.83698 26.3638C5.07896 26.9893 7.38373 25.8647 8.6209 24.0071C9.85807 22.1496 9.70735 19.736 9.13587 18.6303C9.12959 18.6177 9.1233 18.605 9.11074 18.5924C9.33683 18.4597 9.56919 18.3207 9.79527 18.188C10.2412 17.9227 10.6808 17.6763 11.0576 17.4741C10.844 18.0617 10.687 18.763 10.6117 19.7739C10.5175 20.9617 11.001 22.5034 11.6353 23.1099C11.9179 23.3753 12.2508 23.3816 12.4643 23.3816C13.2053 23.3816 13.5382 22.7624 13.9087 22.0295C14.3609 21.1323 14.7691 20.0898 14.7691 20.0898C14.7691 20.0898 14.2604 22.9077 15.642 22.9077C16.1444 22.9077 16.6531 22.2507 16.8792 21.9158C16.8792 21.9221 16.8792 21.9221 16.8792 21.9221C16.8792 21.9221 16.8917 21.9032 16.9168 21.8589C16.9671 21.7768 16.9985 21.7262 16.9985 21.7262C16.9985 21.7262 16.9985 21.7199 16.9985 21.7136C17.1994 21.3598 17.6516 20.5574 18.3236 19.2242C19.1902 17.5057 20.0255 15.3575 20.0255 15.3575C20.0255 15.3575 20.1008 15.8819 20.3583 16.7538C20.509 17.2656 20.823 17.8279 21.0742 18.3713C20.8733 18.6556 20.7477 18.8136 20.7477 18.8136C20.7477 18.8136 20.7477 18.8136 20.7539 18.8199C20.5907 19.0347 20.4148 19.2685 20.2201 19.4959C19.5356 20.3173 18.7192 21.2587 18.6062 21.5304C18.4743 21.8526 18.5057 22.0864 18.7569 22.2759C18.939 22.4149 19.2656 22.4339 19.5984 22.4149C20.2139 22.3707 20.6472 22.2191 20.8607 22.1243C21.1936 22.0042 21.5829 21.821 21.9472 21.5493C22.6191 21.0502 23.0273 20.3362 22.9896 19.3948C22.9708 18.8767 22.8012 18.3586 22.594 17.8721C22.6568 17.7837 22.7133 17.6952 22.7761 17.6068C23.8375 16.0462 24.6601 14.3339 24.6601 14.3339C24.6601 14.3339 24.7355 14.8584 24.993 15.7303C25.1186 16.1725 25.3761 16.6527 25.6021 17.1203C24.6036 17.9353 23.9882 18.8831 23.7684 19.5022C23.3727 20.6522 23.6805 21.1702 24.2645 21.2903C24.5283 21.3472 24.9051 21.2208 25.1814 21.1007C25.5331 20.987 25.9475 20.7911 26.3432 20.5005C27.0152 20.0014 27.662 19.3064 27.6243 18.365C27.6055 17.9353 27.4924 17.512 27.3354 17.1013C28.1832 16.7475 29.276 16.5516 30.6701 16.7159C33.6594 17.0697 34.2498 18.9462 34.1367 19.736C34.0237 20.5258 33.3957 20.9554 33.1884 21.0881C32.9812 21.2208 32.9121 21.265 32.931 21.3598C32.9561 21.4988 33.0566 21.4925 33.2324 21.4672C33.4773 21.423 34.8024 20.8291 34.8589 19.3759C34.9531 17.5183 33.1947 15.4902 30.0861 15.5091ZM7.02577 23.3311C6.03352 24.4178 4.65191 24.8285 4.05531 24.481C3.41474 24.1082 3.66595 22.5034 4.88427 21.3535C5.62532 20.6521 6.57989 20.0014 7.21417 19.6033C7.35861 19.5149 7.57213 19.3885 7.82962 19.2306C7.87358 19.2053 7.8987 19.1926 7.8987 19.1926C7.94894 19.1611 7.99918 19.1295 8.04942 19.0979C8.4953 20.7406 8.06826 22.1875 7.02577 23.3311ZM14.2478 18.3902C13.9024 19.2369 13.1802 21.404 12.7406 21.284C12.3638 21.1829 12.1314 19.5401 12.6652 17.9164C12.9353 17.1013 13.5068 16.1283 13.8396 15.7492C14.3797 15.1427 14.9763 14.9405 15.1207 15.1869C15.3029 15.5091 14.4613 17.8595 14.2478 18.3902ZM20.2076 21.2587C20.0631 21.3345 19.925 21.3851 19.8622 21.3472C19.8182 21.3219 19.925 21.2208 19.925 21.2208C19.925 21.2208 20.6723 20.4121 20.9675 20.0456C21.137 19.8308 21.338 19.5781 21.5515 19.2937C21.5515 19.319 21.5515 19.3506 21.5515 19.3759C21.5515 20.3426 20.6221 20.9933 20.2076 21.2587ZM24.8046 20.2036C24.6978 20.1277 24.7167 19.875 25.0746 19.0852C25.2128 18.7756 25.5393 18.2575 26.0983 17.7584C26.1611 17.9606 26.205 18.1565 26.1987 18.3397C26.1925 19.5591 25.3258 20.014 24.8046 20.2036Z" fill="#CD6799"/>
</g>
<defs>
<clipPath id="clip0">
<rect width="34.4021" height="25.9426" fill="white" transform="translate(0.481659 0.5979)"/>
</clipPath>
</defs>
</svg>
