<svg width="168" height="35" viewBox="0 0 168 35" fill="none" xmlns="http://www.w3.org/2000/svg">
<g clip-path="url(#clip0)">
<path d="M1.84912 17.7723L1.8353 17.787C1.84057 17.7827 1.84523 17.7778 1.84912 17.7723V17.7723Z" fill="#6054FE"/>
<path d="M24.5751 3.75158C23.4307 2.6304 21.879 2.00061 20.2612 2.00061C18.6433 2.00061 17.0916 2.6304 15.9472 3.75158L8.60106 10.954L8.17988 11.3634L3.27881 16.3306C4.80109 15.1343 6.72019 14.5309 8.66822 14.6361C10.6162 14.7413 12.4561 15.5478 13.8352 16.9008L20.2201 23.161L26.49 29.3082C27.9161 30.7062 29.8501 31.4916 31.8668 31.4916C33.8834 31.4916 35.8174 30.7062 37.2435 29.3082L43.9493 22.7336L24.5751 3.75158Z" fill="#7878F9"/>
<path d="M2.64546 16.8939C4.13127 15.4372 6.14646 14.6188 8.24771 14.6188C10.349 14.6188 12.3641 15.4372 13.8499 16.8939L20.2348 23.154L13.8491 29.4148C12.3632 30.8712 10.3481 31.6893 8.24709 31.6891C6.14606 31.689 4.13112 30.8706 2.64546 29.414V29.414C0.95209 27.7537 0.000762656 25.5019 0.000762804 23.154C0.000762951 20.806 0.952091 18.5542 2.64546 16.8939V16.8939Z" fill="#F277EF"/>
</g>
<path d="M53.6316 12.9076C54.6203 12.9076 55.4699 13.1316 56.1805 13.5796C56.8912 14.0276 57.4164 14.6378 57.7563 15.4102V13.0698H61.6956V26H57.7563V23.6596C57.4164 24.432 56.8912 25.0422 56.1805 25.4902C55.4699 25.9382 54.6203 26.1622 53.6316 26.1622C52.5656 26.1622 51.6078 25.8996 50.7582 25.3743C49.924 24.8337 49.2597 24.0612 48.7654 23.0571C48.2865 22.053 48.047 20.8789 48.047 19.5349C48.047 18.1754 48.2865 17.0014 48.7654 16.0127C49.2597 15.0086 49.924 14.2439 50.7582 13.7186C51.6078 13.1779 52.5656 12.9076 53.6316 12.9076ZM54.906 16.3834C54.0564 16.3834 53.3689 16.6615 52.8437 17.2177C52.3339 17.7738 52.079 18.5462 52.079 19.5349C52.079 20.5236 52.3339 21.296 52.8437 21.8521C53.3689 22.4083 54.0564 22.6863 54.906 22.6863C55.7403 22.6863 56.42 22.4006 56.9452 21.829C57.4859 21.2574 57.7563 20.4927 57.7563 19.5349C57.7563 18.5617 57.4859 17.797 56.9452 17.2408C56.42 16.6692 55.7403 16.3834 54.906 16.3834ZM68.3862 8.85241V26H64.4238V8.85241H68.3862ZM70.7513 9.43172C70.7513 8.82924 70.9675 8.3349 71.4001 7.94869C71.8326 7.54703 72.4042 7.34621 73.1149 7.34621C73.8255 7.34621 74.3971 7.54703 74.8296 7.94869C75.2622 8.3349 75.4784 8.82924 75.4784 9.43172C75.4784 10.0188 75.2622 10.5131 74.8296 10.9148C74.3971 11.301 73.8255 11.4941 73.1149 11.4941C72.4042 11.4941 71.8326 11.301 71.4001 10.9148C70.9675 10.5131 70.7513 10.0188 70.7513 9.43172ZM75.0845 13.0698V26H71.122V13.0698H75.0845Z" fill="#7747FF"/>
<path d="M85.1428 22.5937V26H83.3585C81.8446 26 80.6628 25.6292 79.8131 24.8877C78.9789 24.1308 78.5618 22.8872 78.5618 21.157V16.4066H76.8239V13.0698H78.5618V9.89517H82.5243V13.0698H85.1196V16.4066H82.5243V21.2265C82.5243 21.7363 82.6247 22.0916 82.8255 22.2924C83.0418 22.4932 83.3971 22.5937 83.8915 22.5937H85.1428ZM95.5729 12.9308C97.0559 12.9308 98.23 13.4251 99.0951 14.4138C99.9757 15.4025 100.416 16.7619 100.416 18.4921V26H96.4535V18.9556C96.4535 18.0905 96.2217 17.4185 95.7583 16.9396C95.3103 16.4452 94.7078 16.1981 93.9508 16.1981C93.1475 16.1981 92.5064 16.453 92.0275 16.9628C91.5641 17.4726 91.3324 18.1986 91.3324 19.141V26H87.3699V8.85241H91.3324V15.4334C91.7031 14.661 92.2515 14.0508 92.9776 13.6028C93.7191 13.1548 94.5842 12.9308 95.5729 12.9308ZM115.311 19.1873C115.311 19.5117 115.272 19.867 115.195 20.2532H106.227C106.273 21.2265 106.521 21.9294 106.969 22.3619C107.417 22.779 107.988 22.9876 108.683 22.9876C109.27 22.9876 109.757 22.8408 110.143 22.5473C110.529 22.2538 110.784 21.8753 110.908 21.4119H115.102C114.932 22.3233 114.561 23.1421 113.99 23.8681C113.418 24.5788 112.692 25.1426 111.812 25.5597C110.931 25.9614 109.95 26.1622 108.869 26.1622C107.602 26.1622 106.474 25.8996 105.486 25.3743C104.512 24.8337 103.748 24.0612 103.192 23.0571C102.635 22.053 102.357 20.8789 102.357 19.5349C102.357 18.1754 102.628 17.0014 103.168 16.0127C103.725 15.0086 104.497 14.2439 105.486 13.7186C106.474 13.1779 107.602 12.9076 108.869 12.9076C110.151 12.9076 111.279 13.1702 112.252 13.6954C113.225 14.2207 113.974 14.9622 114.5 15.92C115.04 16.8623 115.311 17.9514 115.311 19.1873ZM111.302 18.5848C111.317 17.7352 111.086 17.1018 110.607 16.6847C110.143 16.2521 109.564 16.0359 108.869 16.0359C108.143 16.0359 107.54 16.2521 107.061 16.6847C106.582 17.1172 106.312 17.7506 106.25 18.5848H111.302ZM134.13 12.9308C135.721 12.9308 136.972 13.4251 137.884 14.4138C138.795 15.387 139.251 16.7465 139.251 18.4921V26H135.312V18.9556C135.312 18.1368 135.088 17.5034 134.64 17.0554C134.207 16.592 133.612 16.3603 132.856 16.3603C132.068 16.3603 131.442 16.6074 130.979 17.1018C130.531 17.5807 130.307 18.2604 130.307 19.141V26H126.344V18.9556C126.344 18.1368 126.128 17.5034 125.695 17.0554C125.263 16.592 124.668 16.3603 123.911 16.3603C123.123 16.3603 122.497 16.5997 122.034 17.0786C121.571 17.5575 121.339 18.245 121.339 19.141V26H117.376V13.0698H121.339V15.2712C121.679 14.5451 122.196 13.9735 122.891 13.5564C123.602 13.1393 124.428 12.9308 125.371 12.9308C126.36 12.9308 127.232 13.1625 127.989 13.6259C128.746 14.0739 129.318 14.7228 129.704 15.5724C130.152 14.7691 130.762 14.128 131.535 13.6491C132.323 13.1702 133.188 12.9308 134.13 12.9308ZM154.165 19.1873C154.165 19.5117 154.127 19.867 154.049 20.2532H145.082C145.128 21.2265 145.375 21.9294 145.823 22.3619C146.271 22.779 146.843 22.9876 147.538 22.9876C148.125 22.9876 148.612 22.8408 148.998 22.5473C149.384 22.2538 149.639 21.8753 149.763 21.4119H153.957C153.787 22.3233 153.416 23.1421 152.844 23.8681C152.273 24.5788 151.547 25.1426 150.666 25.5597C149.786 25.9614 148.805 26.1622 147.723 26.1622C146.457 26.1622 145.329 25.8996 144.34 25.3743C143.367 24.8337 142.602 24.0612 142.046 23.0571C141.49 22.053 141.212 20.8789 141.212 19.5349C141.212 18.1754 141.482 17.0014 142.023 16.0127C142.579 15.0086 143.351 14.2439 144.34 13.7186C145.329 13.1779 146.457 12.9076 147.723 12.9076C149.006 12.9076 150.133 13.1702 151.107 13.6954C152.08 14.2207 152.829 14.9622 153.354 15.92C153.895 16.8623 154.165 17.9514 154.165 19.1873ZM150.156 18.5848C150.172 17.7352 149.94 17.1018 149.461 16.6847C148.998 16.2521 148.419 16.0359 147.723 16.0359C146.997 16.0359 146.395 16.2521 145.916 16.6847C145.437 17.1172 145.167 17.7506 145.105 18.5848H150.156ZM160.935 12.9076C162.572 12.9076 163.878 13.317 164.851 14.1357C165.84 14.9545 166.458 16.0359 166.705 17.3799H162.997C162.889 16.8546 162.642 16.4452 162.256 16.1517C161.885 15.8428 161.414 15.6883 160.842 15.6883C160.394 15.6883 160.054 15.7887 159.823 15.9895C159.591 16.1749 159.475 16.4452 159.475 16.8006C159.475 17.2022 159.684 17.5034 160.101 17.7043C160.533 17.9051 161.205 18.1059 162.117 18.3068C163.105 18.5385 163.916 18.7779 164.55 19.0251C165.183 19.2568 165.732 19.643 166.195 20.1837C166.658 20.7244 166.89 21.4505 166.89 22.3619C166.89 23.1034 166.689 23.76 166.288 24.3316C165.886 24.9032 165.307 25.3512 164.55 25.6756C163.793 26 162.897 26.1622 161.862 26.1622C160.116 26.1622 158.718 25.776 157.668 25.0036C156.617 24.2312 155.976 23.1266 155.744 21.6899H159.568C159.629 22.2461 159.861 22.6709 160.263 22.9644C160.68 23.2579 161.213 23.4047 161.862 23.4047C162.31 23.4047 162.65 23.3043 162.881 23.1034C163.113 22.8872 163.229 22.6091 163.229 22.2692C163.229 21.8212 163.013 21.5046 162.58 21.3192C162.163 21.1183 161.476 20.9098 160.518 20.6935C159.56 20.4927 158.772 20.2764 158.154 20.0447C157.536 19.813 157.003 19.4422 156.555 18.9324C156.107 18.4072 155.883 17.6966 155.883 16.8006C155.883 15.6419 156.324 14.7073 157.204 13.9967C158.085 13.2706 159.328 12.9076 160.935 12.9076Z" fill="#1D2C40"/>
<defs>
<clipPath id="clip0">
<rect width="43.9407" height="29.6897" fill="white" transform="translate(0 2)"/>
</clipPath>
</defs>
</svg>
