<svg width="216" height="67" viewBox="0 0 216 67" fill="none" xmlns="http://www.w3.org/2000/svg">
<g clip-path="url(#clip0)">
<ellipse opacity="0.8" cx="60.7242" cy="26.7907" rx="13.5817" ry="19.4671" transform="rotate(5.91321 60.7242 26.7907)" fill="#FDC040"/>
<ellipse cx="41.2455" cy="32.8578" rx="13.5817" ry="19.4671" transform="rotate(-18.8509 41.2455 32.8578)" fill="#FDC040"/>
<path d="M27.1256 39.1814H75.4201C75.8055 39.3488 76.692 39.9851 77.1545 41.1907C77.7327 42.6977 79.3675 64.8 51.7396 60.2791C30.0013 60.2791 24.9288 59.6093 25.1215 59.2744C29.1349 58.2698 29.6372 54.2512 30.1395 51.2372C30.6419 48.2233 27.1256 39.1814 27.1256 39.1814Z" fill="#81B13D"/>
<path d="M63.4107 18.518C62.7766 18.518 62.2628 19.032 62.2628 19.6659V19.8493C62.2628 20.4834 62.7766 20.9972 63.4107 20.9972C64.0448 20.9972 64.5585 20.4834 64.5585 19.8493V19.6659C64.5585 19.0318 64.0448 18.518 63.4107 18.518Z" fill="#253D4E"/>
<path d="M66.3921 23.6392C65.758 23.6392 65.2442 24.153 65.2442 24.7871V24.9704C65.2442 25.6044 65.758 26.1183 66.3921 26.1183C67.0262 26.1183 67.54 25.6045 67.54 24.9704V24.7871C67.54 24.153 67.0262 23.6392 66.3921 23.6392Z" fill="#253D4E"/>
<path d="M41.2579 22.5612L41.173 22.3985C40.8796 21.8364 40.1858 21.6186 39.6242 21.9121C39.0622 22.2055 38.8444 22.8989 39.1378 23.4609L39.2228 23.6236C39.4274 24.016 39.8273 24.2407 40.2412 24.2407C40.4202 24.2407 40.6018 24.1988 40.7715 24.11C41.3335 23.8166 41.5513 23.1233 41.2579 22.5612Z" fill="#253D4E"/>
<path d="M46.2711 25.7207L46.1862 25.558C45.8928 24.9959 45.1991 24.7781 44.6374 25.0716C44.0754 25.365 43.8576 26.0584 44.151 26.6204L44.2359 26.7831C44.4406 27.1755 44.8404 27.4002 45.2544 27.4002C45.4334 27.4002 45.615 27.3582 45.7847 27.2695C46.3467 26.9761 46.5645 26.2827 46.2711 25.7207Z" fill="#253D4E"/>
<path d="M39.1286 48.5587L35.7143 45.1442C35.2658 44.696 34.539 44.6958 34.091 45.1441C33.6425 45.5924 33.6425 46.3192 34.0908 46.7674L37.5051 50.1818C37.7294 50.4061 38.0229 50.5181 38.3168 50.5181C38.6105 50.5181 38.9044 50.4061 39.1284 50.182C39.5769 49.7337 39.5769 49.0069 39.1286 48.5587Z" fill="#253D4E"/>
<path d="M49.2735 46.4195C48.906 45.9031 48.1895 45.7822 47.6727 46.1501L35.7567 54.6335C35.2403 55.0012 35.1197 55.7179 35.4873 56.2343C35.7113 56.549 36.0645 56.7166 36.4234 56.7166C36.6536 56.7166 36.8862 56.6474 37.0881 56.5037L49.0041 48.0203C49.5205 47.6526 49.6411 46.9359 49.2735 46.4195Z" fill="#253D4E"/>
<path d="M53.4861 48.151C53.1188 47.6346 52.402 47.5137 51.8853 47.8816L47.3114 51.138C46.7948 51.5059 46.6743 52.2225 47.042 52.7389C47.2659 53.0536 47.6191 53.2212 47.978 53.2212C48.2082 53.2212 48.4407 53.152 48.6428 53.0081L53.2167 49.7518C53.7333 49.3841 53.8538 48.6674 53.4861 48.151Z" fill="#253D4E"/>
<path d="M78.1461 42.9426C77.7751 42.4283 77.0579 42.3123 76.5435 42.6828L76.1611 42.9585C76.1627 42.8601 76.165 42.7618 76.165 42.6631C76.165 41.568 75.7389 40.5376 74.9629 39.7595C74.1871 38.9857 73.1566 38.5596 72.0616 38.5596H71.7218C72.9816 36.1256 73.6212 33.1946 73.6212 29.8111C73.6212 23.1754 71.1338 15.9222 67.2844 11.3329C66.8768 10.8472 66.1528 10.7835 65.6672 11.1912C65.1816 11.5986 65.118 12.3227 65.5255 12.8084C69.0489 17.0088 71.3256 23.6828 71.3256 29.8111C71.3256 33.3428 70.5664 36.2823 69.0691 38.5596H66.7964L67.8063 37.8407C68.3228 37.4731 68.4433 36.7563 68.0756 36.2399C67.7082 35.7235 66.9917 35.6026 66.4749 35.9705L62.8383 38.5596H56.0103C56.6984 35.0741 55.9817 31.1801 53.9022 27.1968C52.4136 24.3463 50.2994 21.5881 47.8676 19.2513C50.3724 12.9157 54.5177 8.86266 58.5568 8.86266C59.7766 8.86266 61.006 9.21759 62.2103 9.91796C62.7584 10.2363 63.4611 10.0504 63.7797 9.50243C64.0983 8.95434 63.9123 8.25167 63.3642 7.93302C61.8048 7.02648 60.1873 6.56686 58.5568 6.56686C53.6703 6.56686 48.9715 10.7657 46.0499 17.6332C45.0548 16.8144 44.0235 16.0699 42.9729 15.4211C38.0279 12.3671 33.3454 11.7081 29.7883 13.5651C26.5073 15.2797 24.4057 19.0817 23.8704 24.2707C23.8052 24.9013 24.2637 25.4653 24.8943 25.5302C25.5264 25.5963 26.089 25.1367 26.1538 24.5062C26.6076 20.1089 28.2758 16.9459 30.851 15.5999C37.1206 12.3267 47.475 19.8493 51.867 28.2594C53.8204 32.0013 54.4215 35.4615 53.6609 38.5597H40.7909C40.7876 38.5597 40.7846 38.5597 40.7814 38.5597H34.8992L32.9727 36.6333C32.5243 36.1851 31.7976 36.1851 31.3493 36.6333C30.901 37.0817 30.901 37.8084 31.3493 38.2567L31.6522 38.5596H28.5008C27.2222 35.6536 26.3817 32.3165 26.121 29.0793C26.0702 28.4475 25.5174 27.975 24.8848 28.0272C24.2528 28.078 23.7819 28.6315 23.8327 29.2634C24.0444 31.8941 24.5874 34.5118 25.4255 36.9822C22.1539 34.1944 17.8805 32.6961 13.4807 32.935C13.0705 32.9574 12.7034 33.1972 12.5184 33.5638C10.7921 36.9819 10.3068 40.8401 11.0228 44.4938C11.0295 44.6046 11.0514 44.7109 11.0872 44.8109C11.3122 45.8533 11.6367 46.8771 12.0579 47.8678C7.14456 48.6299 2.78147 51.5258 0.166249 55.8398C-0.046648 56.1909 -0.055525 56.629 0.142679 56.9889C1.99233 60.3456 4.90784 62.9247 8.33301 64.3942C8.42439 64.4478 8.51974 64.4883 8.61785 64.5144C10.5094 65.2856 12.5492 65.7213 14.6468 65.7646C14.7617 65.7671 14.8754 65.7682 14.9901 65.7682C15.8066 65.7682 16.6155 65.7065 17.4124 65.5906C17.4874 65.5862 17.562 65.5765 17.6344 65.5577C21.0083 65.021 24.1449 63.4716 26.6213 61.1438C26.6775 61.1522 26.7344 61.158 26.7929 61.158H31.9438C32.5779 61.158 33.0917 60.6442 33.0917 60.0101C33.0917 59.376 32.5779 58.8622 31.9438 58.8622H28.6479C28.9491 58.4539 29.2346 58.0313 29.5003 57.593C29.5084 57.5795 29.515 57.5654 29.5225 57.5518C29.5294 57.5394 29.5376 57.5281 29.544 57.5152C32.2177 52.2184 31.9151 45.8654 28.7736 40.8554H33.948L37.0732 43.9806C37.2974 44.2046 37.5913 44.3167 37.885 44.3167C38.1787 44.3167 38.4726 44.2046 38.6968 43.9806C39.1451 43.5321 39.1451 42.8054 38.6968 42.3571L37.195 40.8554H40.3107L44.5723 45.117C44.7966 45.3411 45.0904 45.4531 45.3841 45.4531C45.6778 45.4531 45.9717 45.3411 46.1959 45.117C46.6442 44.6685 46.6442 43.9419 46.1959 43.4936L43.5579 40.8555H54.5232C54.5245 40.8555 54.5257 40.8558 54.5271 40.8558C54.5283 40.8558 54.5295 40.8555 54.5309 40.8555H59.6139L57.1079 42.6397C56.5913 43.0073 56.4708 43.7241 56.8385 44.2405C57.0624 44.5551 57.4156 44.7227 57.7746 44.7227C58.0047 44.7227 58.2372 44.6536 58.4393 44.5097L63.5721 40.8554H69.6672C69.6679 40.8554 69.6686 40.8555 69.6692 40.8555C69.6702 40.8555 69.6709 40.8554 69.6718 40.8554H72.0624C72.5453 40.8554 73 41.0435 73.3404 41.3828C73.6818 41.7252 73.8699 42.1799 73.8699 42.6629C73.8699 43.354 73.8262 44.0349 73.7418 44.7034L65.3132 50.7809C64.7991 51.1517 64.6828 51.8691 65.0535 52.3835C65.278 52.6947 65.6292 52.8601 65.9855 52.8601C66.2182 52.8601 66.453 52.7896 66.6561 52.6432L72.9212 48.1259C71.6695 51.6091 69.2568 54.5428 66.1516 56.4587L53.3502 43.6573C52.9018 43.2092 52.1751 43.2092 51.7268 43.6573C51.2785 44.1058 51.2785 44.8325 51.7268 45.2808L64.0138 57.5677C62.3499 58.2785 60.5437 58.7179 58.6511 58.8315L53.6467 53.8273C53.1986 53.3791 52.4717 53.379 52.0234 53.8274C51.5751 54.2757 51.5751 55.0024 52.0236 55.4507L55.435 58.8619H44.1972L42.3555 57.0203C41.9071 56.5721 41.1804 56.5721 40.7321 57.0203C40.2838 57.4687 40.2838 58.1954 40.7321 58.6437L40.9503 58.8619H36.7262C36.0921 58.8619 35.5783 59.3757 35.5783 60.0098C35.5783 60.6439 36.0921 61.1577 36.7262 61.1577H43.2451L45.8341 63.7468C46.0583 63.9709 46.3522 64.0829 46.6459 64.0829C46.9396 64.0829 47.2335 63.9709 47.4577 63.7468C47.906 63.2983 47.906 62.5716 47.4577 62.1234L46.4921 61.1577H57.6685C60.5624 61.1577 63.3028 60.4891 65.7445 59.2992L66.7087 60.2634C66.9329 60.4875 67.2268 60.5996 67.5205 60.5996C67.8142 60.5996 68.1081 60.4875 68.3323 60.2634C68.7806 59.815 68.7806 59.0883 68.3323 58.64L67.8125 58.1202C71.9513 55.3956 74.9359 51.0559 75.8618 46.0049L77.8865 44.545C78.4005 44.1743 78.5168 43.457 78.1461 42.9426ZM26.6835 41.8449C26.8122 42.0418 26.934 42.2422 27.0525 42.4441L24.1468 48.2097L20.829 43.133L23.151 38.1041C24.5224 39.1201 25.7252 40.3786 26.6835 41.8449ZM22.8898 50.4827L16.5615 50.8014C16.1349 50.3093 15.738 49.7868 15.3768 49.234C14.622 48.0789 14.046 46.8367 13.6493 45.5483L19.6016 45.4511L22.8898 50.4827ZM21.1889 36.8768L19.3472 40.8653L15.6868 35.2642C17.6224 35.4361 19.4912 35.9917 21.1889 36.8768ZM13.7643 36.5188L18.1169 43.1792L13.1396 43.2605C12.8247 41.0132 13.0295 38.7007 13.7643 36.5188ZM13.1709 50.0392C13.2632 50.1903 13.3576 50.3407 13.4549 50.4898C13.9649 51.2702 14.5353 51.9989 15.1561 52.674C15.2014 52.7329 15.2524 52.7871 15.308 52.8362C16.3391 53.9283 17.5053 54.8726 18.7714 55.6498L12.7319 55.5257L9.88451 50.7633C10.9389 50.3992 12.0404 50.1541 13.1709 50.0392ZM7.76274 51.6882L10.0236 55.4698L3.33093 55.3322C4.56423 53.8259 6.07318 52.5915 7.76274 51.6882ZM8.49938 61.9463C6.46607 60.9384 4.67214 59.4648 3.28547 57.6274L11.2401 57.791L8.49938 61.9463ZM16.6559 63.3753C16.0089 63.4502 15.3536 63.4825 14.6934 63.4695C13.314 63.4408 11.9633 63.2155 10.676 62.8162L13.9536 57.8467L19.9629 57.9703L16.6559 63.3753ZM19.786 62.6583L22.6208 58.025L26.1054 58.0967C26.177 58.1033 26.249 58.108 26.3207 58.1137C24.5934 60.2106 22.3215 61.777 19.786 62.6583ZM26.2395 55.8033C23.576 55.5424 21.0439 54.5547 18.9174 52.9815L24.3439 52.7081L26.3683 55.8059L26.2395 55.8033ZM28.2967 54.5601L25.5982 50.4309L28.2766 45.1161C29.3132 48.1586 29.3304 51.4888 28.2967 54.5601Z" fill="#253D4E"/>
<path d="M66.8808 44.9105C66.5098 44.3963 65.7924 44.2803 65.2783 44.651L61.2333 47.5677C60.7192 47.9384 60.6028 48.6558 60.9737 49.1702C61.1981 49.4813 61.5493 49.6468 61.9056 49.6468C62.1384 49.6468 62.373 49.5762 62.5761 49.4298L66.6212 46.513C67.1353 46.1423 67.2516 45.425 66.8808 44.9105Z" fill="#253D4E"/>
</g>
<path d="M95.4753 61.2233L95.4644 56.1421L92.9457 60.3472H92.3106L89.7919 56.2078V61.2233H88.434V53.5578H89.6058L92.65 58.6389L95.6396 53.5578H96.8113L96.8223 61.2233H95.4753ZM104.959 59.4493H101.127L100.371 61.2233H98.9038L102.353 53.5578H103.755L107.215 61.2233H105.726L104.959 59.4493ZM104.489 58.3323L103.043 54.9814L101.609 58.3323H104.489ZM114.301 61.2233L112.735 58.9784C112.669 58.9857 112.57 58.9893 112.439 58.9893H110.709V61.2233H109.285V53.5578H112.439C113.103 53.5578 113.68 53.6673 114.169 53.8863C114.666 54.1053 115.045 54.4192 115.308 54.8281C115.571 55.2369 115.702 55.7224 115.702 56.2845C115.702 56.8612 115.56 57.3577 115.275 57.7738C114.998 58.1899 114.596 58.5002 114.071 58.7046L115.834 61.2233H114.301ZM114.268 56.2845C114.268 55.7954 114.107 55.4194 113.786 55.1566C113.465 54.8938 112.994 54.7624 112.373 54.7624H110.709V57.8176H112.373C112.994 57.8176 113.465 57.6862 113.786 57.4234C114.107 57.1533 114.268 56.7736 114.268 56.2845ZM119.838 54.7624H117.298V53.5578H123.802V54.7624H121.262V61.2233H119.838V54.7624ZM135.836 61.3437L134.873 60.4129C134.157 61.0262 133.3 61.3328 132.299 61.3328C131.766 61.3328 131.288 61.2452 130.865 61.07C130.441 60.8947 130.109 60.6538 129.868 60.3472C129.627 60.0333 129.507 59.6792 129.507 59.285C129.507 58.8105 129.646 58.3943 129.923 58.0366C130.2 57.6716 130.653 57.3139 131.281 56.9634C130.974 56.6568 130.755 56.3721 130.624 56.1093C130.492 55.8392 130.427 55.5618 130.427 55.277C130.427 54.7368 130.628 54.3024 131.029 53.9739C131.438 53.6381 131.978 53.4702 132.65 53.4702C133.27 53.4702 133.767 53.6235 134.139 53.9301C134.511 54.2294 134.698 54.6382 134.698 55.1566C134.698 55.5508 134.573 55.9012 134.325 56.2078C134.084 56.5145 133.686 56.8247 133.132 57.1387L134.785 58.7156C134.968 58.3578 135.11 57.9271 135.212 57.4234L136.318 57.7847C136.172 58.4637 135.942 59.0477 135.628 59.5369L136.592 60.4567L135.836 61.3437ZM132.65 54.4448C132.35 54.4448 132.113 54.5214 131.938 54.6747C131.763 54.8208 131.675 55.0142 131.675 55.2551C131.675 55.4303 131.723 55.5983 131.818 55.7589C131.912 55.9122 132.095 56.1239 132.365 56.394C132.803 56.1531 133.106 55.945 133.274 55.7698C133.449 55.5873 133.537 55.3902 133.537 55.1785C133.537 54.9522 133.456 54.7733 133.296 54.6419C133.143 54.5105 132.927 54.4448 132.65 54.4448ZM132.398 60.2158C133.033 60.2158 133.588 60.0223 134.062 59.6354L132.037 57.6971C131.599 57.9381 131.288 58.1717 131.106 58.398C130.931 58.617 130.843 58.8652 130.843 59.1426C130.843 59.4639 130.985 59.723 131.27 59.9201C131.555 60.1172 131.931 60.2158 132.398 60.2158ZM148.27 57.3029H149.617V60.3582C149.223 60.6721 148.763 60.913 148.237 61.0809C147.712 61.2488 147.171 61.3328 146.617 61.3328C145.835 61.3328 145.131 61.1649 144.503 60.829C143.875 60.4859 143.382 60.015 143.025 59.4164C142.667 58.8178 142.488 58.1425 142.488 57.3905C142.488 56.6386 142.667 55.9633 143.025 55.3646C143.382 54.766 143.875 54.2988 144.503 53.963C145.138 53.6198 145.85 53.4483 146.638 53.4483C147.281 53.4483 147.865 53.5541 148.391 53.7658C148.916 53.9776 149.358 54.2878 149.716 54.6967L148.818 55.5727C148.234 54.9887 147.529 54.6967 146.704 54.6967C146.164 54.6967 145.682 54.8098 145.259 55.0361C144.843 55.2624 144.514 55.58 144.273 55.9888C144.039 56.3977 143.923 56.8649 143.923 57.3905C143.923 57.9016 144.039 58.3615 144.273 58.7703C144.514 59.1791 144.843 59.5004 145.259 59.734C145.682 59.9676 146.16 60.0844 146.693 60.0844C147.292 60.0844 147.817 59.953 148.27 59.6902V57.3029ZM157.605 61.2233L156.039 58.9784C155.973 58.9857 155.875 58.9893 155.744 58.9893H154.013V61.2233H152.59V53.5578H155.744C156.408 53.5578 156.985 53.6673 157.474 53.8863C157.97 54.1053 158.35 54.4192 158.613 54.8281C158.875 55.2369 159.007 55.7224 159.007 56.2845C159.007 56.8612 158.864 57.3577 158.58 57.7738C158.302 58.1899 157.901 58.5002 157.375 58.7046L159.138 61.2233H157.605ZM157.572 56.2845C157.572 55.7954 157.412 55.4194 157.09 55.1566C156.769 54.8938 156.298 54.7624 155.678 54.7624H154.013V57.8176H155.678C156.298 57.8176 156.769 57.6862 157.09 57.4234C157.412 57.1533 157.572 56.7736 157.572 56.2845ZM165.276 61.3328C164.494 61.3328 163.79 61.1649 163.162 60.829C162.534 60.4859 162.041 60.015 161.684 59.4164C161.326 58.8105 161.147 58.1352 161.147 57.3905C161.147 56.6459 161.326 55.9742 161.684 55.3756C162.041 54.7697 162.534 54.2988 163.162 53.963C163.79 53.6198 164.494 53.4483 165.276 53.4483C166.057 53.4483 166.761 53.6198 167.389 53.963C168.017 54.2988 168.51 54.766 168.867 55.3646C169.225 55.9633 169.404 56.6386 169.404 57.3905C169.404 58.1425 169.225 58.8178 168.867 59.4164C168.51 60.015 168.017 60.4859 167.389 60.829C166.761 61.1649 166.057 61.3328 165.276 61.3328ZM165.276 60.0844C165.787 60.0844 166.246 59.9712 166.655 59.7449C167.064 59.5113 167.385 59.1901 167.619 58.7813C167.853 58.3651 167.969 57.9016 167.969 57.3905C167.969 56.8795 167.853 56.4196 167.619 56.0107C167.385 55.5946 167.064 55.2734 166.655 55.0471C166.246 54.8135 165.787 54.6967 165.276 54.6967C164.764 54.6967 164.305 54.8135 163.896 55.0471C163.487 55.2734 163.166 55.5946 162.932 56.0107C162.698 56.4196 162.582 56.8795 162.582 57.3905C162.582 57.9016 162.698 58.3651 162.932 58.7813C163.166 59.1901 163.487 59.5113 163.896 59.7449C164.305 59.9712 164.764 60.0844 165.276 60.0844ZM175.556 61.3328C174.782 61.3328 174.081 61.1649 173.453 60.829C172.833 60.4859 172.344 60.015 171.986 59.4164C171.636 58.8178 171.46 58.1425 171.46 57.3905C171.46 56.6386 171.639 55.9633 171.997 55.3646C172.355 54.766 172.844 54.2988 173.464 53.963C174.092 53.6198 174.793 53.4483 175.567 53.4483C176.195 53.4483 176.768 53.5578 177.286 53.7768C177.805 53.9958 178.243 54.3134 178.6 54.7295L177.68 55.5946C177.126 54.996 176.443 54.6967 175.633 54.6967C175.107 54.6967 174.636 54.8135 174.22 55.0471C173.804 55.2734 173.479 55.591 173.245 55.9998C173.012 56.4086 172.895 56.8722 172.895 57.3905C172.895 57.9089 173.012 58.3724 173.245 58.7813C173.479 59.1901 173.804 59.5113 174.22 59.7449C174.636 59.9712 175.107 60.0844 175.633 60.0844C176.443 60.0844 177.126 59.7814 177.68 59.1755L178.6 60.0515C178.243 60.4677 177.801 60.7852 177.275 61.0043C176.757 61.2233 176.184 61.3328 175.556 61.3328ZM186.809 60.0296V61.2233H181.059V53.5578H186.655V54.7514H182.483V56.7444H186.184V57.9162H182.483V60.0296H186.809ZM194.506 61.2233L192.94 58.9784C192.874 58.9857 192.776 58.9893 192.644 58.9893H190.914V61.2233H189.491V53.5578H192.644C193.309 53.5578 193.885 53.6673 194.375 53.8863C194.871 54.1053 195.251 54.4192 195.513 54.8281C195.776 55.2369 195.908 55.7224 195.908 56.2845C195.908 56.8612 195.765 57.3577 195.481 57.7738C195.203 58.1899 194.802 58.5002 194.276 58.7046L196.039 61.2233H194.506ZM194.473 56.2845C194.473 55.7954 194.313 55.4194 193.991 55.1566C193.67 54.8938 193.199 54.7624 192.579 54.7624H190.914V57.8176H192.579C193.199 57.8176 193.67 57.6862 193.991 57.4234C194.313 57.1533 194.473 56.7736 194.473 56.2845ZM201.796 58.5184V61.2233H200.372V58.5403L197.361 53.5578H198.883L201.128 57.292L203.394 53.5578H204.796L201.796 58.5184Z" fill="#253D4E"/>
<path d="M118.18 6.9693C119.072 6.9693 119.797 7.26668 120.355 7.86143C120.912 8.45618 121.191 9.19962 121.191 10.0918V42.5988C121.191 43.5652 120.857 44.383 120.187 45.0521C119.555 45.684 118.756 46 117.79 46C117.269 46 116.749 45.9257 116.229 45.777C115.745 45.5911 115.392 45.3495 115.169 45.0521L94.7059 19.0688V42.8775C94.7059 43.7697 94.4086 44.5131 93.8138 45.1079C93.2562 45.7026 92.5128 46 91.5835 46C90.6914 46 89.9665 45.7026 89.4089 45.1079C88.8513 44.5131 88.5725 43.7697 88.5725 42.8775V10.3705C88.5725 9.40407 88.8885 8.60487 89.5204 7.97295C90.1895 7.30385 91.0073 6.9693 91.9738 6.9693C92.5314 6.9693 93.0704 7.08082 93.5908 7.30385C94.1484 7.52688 94.5573 7.82426 94.8175 8.19598L115.113 34.0678V10.0918C115.113 9.19962 115.392 8.45618 115.95 7.86143C116.545 7.26668 117.288 6.9693 118.18 6.9693ZM155.758 30.3877C155.721 31.2799 155.368 32.0047 154.699 32.5623C154.03 33.1199 153.249 33.3987 152.357 33.3987H133.957C134.403 35.5918 135.425 37.3203 137.024 38.5842C138.622 39.8108 140.425 40.4242 142.432 40.4242C143.956 40.4242 145.146 40.2941 146.001 40.0339C146.856 39.7365 147.525 39.4391 148.008 39.1417C148.528 38.8072 148.882 38.5842 149.067 38.4727C149.737 38.1381 150.368 37.9708 150.963 37.9708C151.744 37.9708 152.413 38.2496 152.97 38.8072C153.528 39.3648 153.807 40.0153 153.807 40.7587C153.807 41.7624 153.286 42.6731 152.246 43.4909C151.205 44.3458 149.811 45.0707 148.064 45.6655C146.317 46.2602 144.551 46.5576 142.767 46.5576C139.644 46.5576 136.912 45.9071 134.57 44.606C132.266 43.305 130.481 41.5208 129.218 39.2533C127.954 36.9486 127.322 34.3651 127.322 31.5029C127.322 28.3061 127.991 25.4996 129.329 23.0834C130.667 20.6672 132.433 18.8272 134.626 17.5633C136.819 16.2623 139.161 15.6118 141.652 15.6118C144.105 15.6118 146.41 16.2809 148.566 17.6191C150.759 18.9573 152.506 20.7601 153.807 23.0276C155.108 25.2951 155.758 27.7485 155.758 30.3877ZM141.652 21.7452C137.34 21.7452 134.793 23.7711 134.013 27.8228H148.621V27.4325C148.473 25.8713 147.711 24.5331 146.335 23.418C144.96 22.3028 143.399 21.7452 141.652 21.7452ZM159.588 41.3721C159.253 40.926 159.086 40.3684 159.086 39.6993C159.086 38.7329 159.569 37.9151 160.536 37.246C161.056 36.9114 161.595 36.7441 162.153 36.7441C162.933 36.7441 163.677 37.0973 164.383 37.8036C165.498 38.9559 166.65 39.8108 167.84 40.3684C169.067 40.926 170.535 41.2048 172.245 41.2048C175.144 41.0933 176.594 39.9967 176.594 37.9151C176.594 36.8371 176.092 36.0193 175.089 35.4617C174.122 34.9041 172.598 34.3465 170.516 33.789C168.36 33.1942 166.595 32.5995 165.219 32.0047C163.881 31.41 162.71 30.5178 161.707 29.3283C160.74 28.1016 160.257 26.4661 160.257 24.4216C160.257 22.6373 160.759 21.0947 161.762 19.7937C162.803 18.4555 164.141 17.4332 165.777 16.727C167.45 15.9835 169.215 15.6118 171.074 15.6118C172.97 15.6118 174.866 15.9649 176.761 16.6712C178.657 17.3775 180.144 18.4183 181.222 19.7937C181.705 20.3884 181.947 21.0575 181.947 21.801C181.947 22.6559 181.594 23.3622 180.887 23.9198C180.367 24.3287 179.772 24.5331 179.103 24.5331C178.285 24.5331 177.616 24.2729 177.096 23.7525C176.427 22.9347 175.553 22.2842 174.475 21.801C173.434 21.3177 172.245 21.0761 170.907 21.0761C168.082 21.0761 166.669 22.0983 166.669 24.1428C166.669 24.9606 166.929 25.6297 167.45 26.1501C167.97 26.6333 168.621 27.0236 169.401 27.321C170.219 27.5812 171.353 27.9158 172.802 28.3247C174.81 28.8823 176.482 29.4584 177.821 30.0532C179.159 30.6479 180.293 31.5586 181.222 32.7853C182.151 34.012 182.616 35.629 182.616 37.6363C182.616 39.4577 182.077 41.0561 180.999 42.4315C179.921 43.7697 178.527 44.7919 176.817 45.4982C175.144 46.2044 173.416 46.5576 171.632 46.5576C169.178 46.5576 166.892 46.1487 164.773 45.3309C162.654 44.5131 160.926 43.1935 159.588 41.3721ZM202.579 39.6993C203.099 39.6993 203.564 39.9595 203.972 40.4799C204.419 40.9632 204.642 41.6137 204.642 42.4315C204.642 43.4351 204.084 44.2901 202.969 44.9964C201.891 45.6655 200.664 46 199.289 46C196.984 46 195.033 45.5168 193.434 44.5503C191.873 43.5466 191.092 41.4464 191.092 38.2496V22.8604H188.527C187.635 22.8604 186.892 22.563 186.297 21.9682C185.702 21.3735 185.405 20.63 185.405 19.7379C185.405 18.883 185.702 18.1767 186.297 17.6191C186.892 17.0244 187.635 16.727 188.527 16.727H191.092V13.1585C191.092 12.192 191.408 11.3928 192.04 10.7609C192.709 10.0918 193.527 9.75721 194.494 9.75721C195.423 9.75721 196.203 10.0918 196.835 10.7609C197.467 11.3928 197.783 12.192 197.783 13.1585V16.727H201.742C202.634 16.727 203.378 17.0244 203.972 17.6191C204.567 18.2139 204.865 18.9573 204.865 19.8494C204.865 20.7044 204.567 21.4292 203.972 22.024C203.378 22.5816 202.634 22.8604 201.742 22.8604H197.783V37.9708C197.783 38.7514 197.988 39.3276 198.397 39.6993C198.806 40.0339 199.363 40.2012 200.069 40.2012C200.367 40.2012 200.776 40.1268 201.296 39.9781C201.742 39.7923 202.17 39.6993 202.579 39.6993Z" fill="#3BB77E"/>
<defs>
<clipPath id="clip0">
<rect width="78.3629" height="60.2791" fill="white" transform="translate(0 6.02789)"/>
</clipPath>
</defs>
</svg>
