<?xml version="1.0" standalone="no"?>
<!DOCTYPE svg PUBLIC "-//W3C//DTD SVG 1.1//EN" "http://www.w3.org/Graphics/SVG/1.1/DTD/svg11.dtd" >
<svg xmlns="http://www.w3.org/2000/svg">
<metadata>Generated by IcoMoon</metadata>
<defs>
<font id="icomoon" horiz-adv-x="1024">
<font-face units-per-em="1024" ascent="960" descent="-64" />
<missing-glyph horiz-adv-x="1024" />
<glyph unicode="&#x20;" horiz-adv-x="512" d="" />
<glyph unicode="&#xe900;" glyph-name="copy-writing" d="M444.8 896.8c-196.8-27.2-216-31.2-229.6-48-8.8-10.4-15.2-24.8-15.2-32 0-9.6-17.6-18.4-68.8-32.8-71.2-20-99.2-40.8-99.2-75.2 0-16.8 180-625.6 204-689.6 12-31.2 36.8-51.2 63.2-51.2 5.6 0 100 27.2 209.6 60.8 109.6 32.8 222.4 64 251.2 68.8 101.6 16 102.4 18.4 76 216.8l-20 152.8 25.6 40c14.4 22.4 53.6 83.2 88 135.2 47.2 72.8 62.4 101.6 62.4 122.4 0 39.2-29.6 67.2-70.4 67.2-40 0-56-13.6-100-82.4l-35.2-55.2-12.8 99.2c-12 87.2-16 100.8-33.6 116.8-26.4 22.4-31.2 22.4-295.2-13.6zM720 870.4c3.2-10.4 12.8-64.8 20-120.8l12.8-102.4-36.8-59.2c-40.8-64.8-32.8-60.8-143.2-76-61.6-8-78.4-17.6-60.8-35.2 9.6-8.8 22.4-9.6 66.4-3.2 29.6 4.8 56 6.4 58.4 4 2.4-1.6-7.2-20.8-20-42.4-13.6-20.8-24.8-43.2-24.8-48.8 0-10.4-9.6-12.8-139.2-29.6-92-12.8-112-20.8-92.8-40 10.4-9.6 27.2-8.8 114.4 2.4l101.6 14.4-5.6-16.8c-13.6-40.8 4-76.8 38.4-76.8 23.2 0 104 73.6 140 128 19.2 28.8 35.2 48 35.2 43.2s7.2-62.4 16-128c13.6-101.6 14.4-120 4.8-129.6-7.2-7.2-82.4-20.8-213.6-38.4-228-30.4-241.6-31.2-253.6-16.8-4 4.8-28.8 167.2-53.6 360.8-39.2 302.4-44 352-34.4 361.6 7.2 7.2 80 20.8 211.2 38.4 248.8 33.6 249.6 33.6 259.2 11.2zM248 432c22.4-173.6 42.4-324 44.8-334.4 1.6-9.6 11.2-25.6 20.8-35.2 15.2-15.2 22.4-16 76.8-11.2 32.8 2.4 58.4 3.2 56.8 1.6s-36.8-12.8-78.4-24.8c-62.4-18.4-76-20-84.8-11.2-14.4 15.2-215.2 684-209.6 698.4s128.8 52.8 131.2 41.6c0.8-4.8 20-151.2 42.4-324.8zM875.2 669.6c15.2-11.2 11.2-17.6-79.2-156.8-52-79.2-96.8-144.8-99.2-144.8s-15.2 8-28 18.4l-23.2 18.4 94.4 145.6c100 152.8 95.2 148.8 135.2 119.2zM530.4 788.8c-120.8-16.8-151.2-27.2-132-46.4 7.2-7.2 36.8-5.6 127.2 5.6 130.4 16 154.4 22.4 154.4 39.2 0 8.8-20.8 24-26.4 20-0.8-0.8-56-8.8-123.2-18.4zM476 640.8c-128-17.6-152-23.2-154.4-35.2-1.6-7.2 2.4-16 8.8-18.4 9.6-3.2 296 30.4 348 41.6 11.2 2.4 17.6 9.6 17.6 19.2 0 20.8-24.8 20-220-7.2z" />
<glyph unicode="&#xe901;" glyph-name="folder" d="M619.2 860l-26.4-28h-553.6l-19.2-20-20-19.2v-670.4l18.4-16.8c18.4-17.6 20.8-17.6 282.4-16 228 2.4 263.2 4 263.2 14.4s-35.2 12.8-254.4 16c-240.8 4-255.2 4.8-266.4 19.2-8.8 12.8-11.2 63.2-11.2 268.8 0 235.2 0.8 254.4 14.4 266.4 12.8 12 43.2 13.6 260.8 13.6 162.4 0 251.2 3.2 262.4 8.8 8.8 4.8 30.4 39.2 47.2 76 24 52 36 69.6 53.6 76 32 12 220 6.4 236-8 12-9.6 13.6-33.6 13.6-192.8s1.6-183.2 12.8-187.2c7.2-2.4 16-3.2 20 0 11.2 6.4 8.8 368.8-2.4 389.6-18.4 35.2-28 36.8-169.6 37.6h-135.2l-26.4-28zM568 760l-16-32h-235.2c-128.8 0-246.4-2.4-260-4.8-23.2-4.8-24.8-3.2-24.8 16 0 12 4 28.8 8 37.6 8 14.4 20 15.2 276.8 15.2h267.2l-16-32zM738.4 470.4c-4.8-5.6-10.4-16.8-12.8-24.8-4.8-12-11.2-13.6-40-9.6-32.8 4.8-36 4-64-27.2-30.4-34.4-34.4-44.8-22.4-64 9.6-14.4-3.2-40.8-19.2-40.8-16.8 0-28-26.4-28-63.2 0-32 4.8-39.2 43.2-71.2 9.6-8 11.2-14.4 4.8-25.6-12-23.2-10.4-29.6 21.6-64.8 26.4-29.6 32.8-32 58.4-28 30.4 4.8 39.2 0.8 52.8-23.2 7.2-13.6 17.6-16 60-16 48 0 52 1.6 61.6 21.6s12.8 21.6 44 17.6c30.4-4 36-2.4 60.8 24 23.2 24 26.4 32 22.4 55.2-4.8 31.2-0.8 39.2 24.8 52.8 15.2 8 17.6 15.2 17.6 61.6 0 48-1.6 52-20 59.2-20.8 8-22.4 11.2-20 56.8 0.8 24-4 32.8-28 54.4-26.4 22.4-33.6 25.6-60 20.8-27.2-4.8-32-2.4-40.8 13.6-4.8 10.4-13.6 20.8-18.4 24-14.4 10.4-90.4 7.2-98.4-3.2zM820 424.8c6.4-20 46.4-36 75.2-30.4s52.8-16.8 44.8-41.6c-8-26.4 10.4-72.8 32.8-80.8 14.4-5.6 19.2-13.6 19.2-32 0-16-4-24-12-24-20 0-44.8-48-40-76.8 5.6-32.8-10.4-46.4-57.6-47.2-31.2 0-40-4.8-58.4-26.4-25.6-31.2-49.6-32.8-62.4-5.6-11.2 24-44.8 39.2-74.4 32.8-26.4-4.8-51.2 18.4-43.2 42.4 6.4 21.6-16.8 73.6-36 78.4-22.4 5.6-23.2 54.4-0.8 60.8 23.2 5.6 44 51.2 34.4 73.6-12.8 27.2 13.6 48 55.2 44.8 27.2-1.6 35.2 1.6 53.6 22.4 25.6 28.8 61.6 33.6 69.6 9.6zM752 341.6c-38.4-13.6-64-54.4-64-101.6 0-103.2 138.4-142.4 192-54.4s-29.6 191.2-128 156zM818.4 302.4c26.4-13.6 36.8-31.2 37.6-60.8 0-54.4-62.4-84-106.4-49.6-26.4 20.8-32.8 50.4-17.6 80.8 18.4 35.2 53.6 47.2 86.4 29.6z" />
<glyph unicode="&#xe902;" glyph-name="review" d="M192 718.4c-15.2-16.8-16-27.2-16-219.2 0-257.6-12-238.4 145.6-241.6l114.4-2.4 31.2-48c18.4-28.8 36-47.2 44.8-47.2s26.4 18.4 44.8 47.2l31.2 48 114.4 2.4c157.6 3.2 145.6-16 145.6 241.6 0 192-0.8 202.4-16 219.2-16.8 17.6-18.4 17.6-320 17.6s-303.2 0-320-17.6zM803.2 691.2c11.2-10.4 12.8-39.2 12.8-188 0-106.4-3.2-182.4-8-192-8-13.6-18.4-15.2-124-15.2h-116l-24.8-40c-13.6-21.6-27.2-40-31.2-40s-17.6 18.4-31.2 40l-24.8 40h-116c-105.6 0-116 1.6-124 15.2-4.8 9.6-8 85.6-8 192 0 148.8 1.6 177.6 12.8 188 10.4 11.2 48 12.8 291.2 12.8s280.8-1.6 291.2-12.8zM391.2 640c-6.4-4-19.2-21.6-26.4-39.2-14.4-31.2-29.6-40.8-68.8-40.8-46.4 0-52.8-40-13.6-78.4 25.6-24.8 26.4-28 23.2-72.8-3.2-41.6-1.6-48 12.8-52 9.6-3.2 30.4 1.6 52.8 12.8l36.8 17.6 31.2-17.6c56.8-32 77.6-18.4 66.4 44-6.4 37.6-5.6 39.2 24 72 16.8 19.2 30.4 37.6 30.4 41.6 0 15.2-25.6 32.8-48 32.8-36 0-47.2 8-65.6 43.2-22.4 44-32 50.4-55.2 36.8zM443.2 534.4c4.8-3.2 20.8-6.4 35.2-6.4 31.2 0 32-7.2 4.8-32.8-18.4-16.8-20-24-16.8-57.6 3.2-32.8 1.6-37.6-9.6-32.8-53.6 22.4-56 22.4-84.8 8.8-16-7.2-29.6-13.6-31.2-13.6s0 14.4 3.2 32.8c5.6 28.8 3.2 36-16.8 59.2-12.8 14.4-23.2 28-23.2 31.2 0 2.4 12 4.8 27.2 4.8 31.2 0 45.6 11.2 60.8 48l10.4 25.6 16-30.4c8.8-17.6 20-33.6 24.8-36.8z" />
<glyph unicode="&#xe903;" glyph-name="news" d="M385.6 948c-24-5.6-73.6-25.6-112-44-98.4-48.8-171.2-123.2-220-224.8-43.2-88.8-53.6-135.2-53.6-231.2s10.4-142.4 53.6-231.2c50.4-104.8 122.4-176.8 227.2-227.2 88.8-43.2 135.2-53.6 231.2-53.6s142.4 10.4 231.2 53.6c60 28.8 86.4 47.2 132.8 94.4 47.2 46.4 65.6 72.8 94.4 132.8 43.2 88.8 53.6 135.2 53.6 231.2s-10.4 142.4-53.6 231.2c-50.4 104.8-122.4 176.8-227.2 227.2-41.6 20-94.4 40-117.6 44.8-56 12-187.2 10.4-240-3.2zM496 813.6v-106.4l-71.2 6.4c-39.2 3.2-78.4 8.8-87.2 12-16 6.4-16 7.2 6.4 52.8 30.4 60 60.8 99.2 96 122.4 54.4 35.2 56 32.8 56-87.2zM585.6 896.8c20-12.8 48-40.8 62.4-64 16-24.8 32.8-40.8 41.6-40.8 22.4 0 17.6 25.6-13.6 72-24.8 37.6-26.4 40.8-9.6 36 49.6-15.2 189.6-106.4 189.6-124.8 0-2.4-24-12-53.6-21.6l-54.4-16-12.8 16.8c-16 20-43.2 12.8-36.8-10.4 4.8-17.6-12.8-23.2-107.2-31.2l-63.2-5.6v106.4c0 120 0 120 57.6 83.2zM347.2 862.4c-16-23.2-37.6-60.8-47.2-84l-19.2-41.6-42.4 12c-76.8 23.2-77.6 24.8-37.6 60 32.8 28 150.4 95.2 168 95.2 4 0-5.6-19.2-21.6-41.6zM263.2 693.6c1.6-3.2 0-20-3.2-37.6l-5.6-32h-52.8c-43.2 0-56-3.2-71.2-17.6-16-15.2-18.4-24.8-18.4-80v-62.4h-79.2l4 30.4c11.2 80.8 37.6 153.6 80.8 218.4l19.2 29.6 62.4-21.6c34.4-11.2 63.2-23.2 64-27.2zM924 684c29.6-49.6 55.2-126.4 62.4-185.6l4-34.4h-78.4v61.6c0 52-2.4 64-17.6 80-14.4 16-24.8 18.4-71.2 18.4h-53.6l-5.6 32c-3.2 17.6-5.6 34.4-4.8 37.6 0 7.2 124 48.8 130.4 43.2 3.2-2.4 18.4-26.4 34.4-52.8zM434.4 674.4c61.6-4.8 61.6-4.8 61.6-27.2v-23.2h-100c-55.2 0-100 3.2-100 7.2s2.4 18.4 4.8 32.8c5.6 24.8 6.4 25.6 38.4 20.8 18.4-3.2 60.8-7.2 95.2-10.4zM720 680.8c0-4 2.4-18.4 4.8-32l5.6-24.8h-202.4v24c0 23.2 0.8 24 42.4 24.8 22.4 0 57.6 3.2 77.6 6.4 51.2 9.6 72 9.6 72 1.6zM865.6 578.4c12.8-11.2 14.4-26.4 14.4-128.8 0-96.8-2.4-118.4-13.6-131.2-12-13.6-33.6-14.4-352.8-14.4-305.6 0-341.6 1.6-355.2 13.6-12.8 11.2-14.4 26.4-14.4 128.8 0 96.8 2.4 118.4 13.6 131.2 12 13.6 33.6 14.4 352.8 14.4 305.6 0 341.6-1.6 355.2-13.6zM112 370.4c0-52 2.4-64 17.6-80 14.4-16 24.8-18.4 71.2-18.4h53.6l5.6-32c3.2-17.6 5.6-34.4 4.8-37.6 0-2.4-28.8-15.2-64-27.2l-64-21.6-19.2 29.6c-43.2 64.8-69.6 137.6-80.8 219.2l-4 29.6h79.2v-61.6zM987.2 402.4c-11.2-81.6-37.6-154.4-80.8-219.2l-19.2-29.6-62.4 21.6c-34.4 11.2-63.2 23.2-64 27.2-1.6 3.2 0 20 3.2 37.6l5.6 32h52.8c43.2 0 56 3.2 71.2 17.6 16 15.2 18.4 24.8 18.4 80v62.4h79.2l-4-29.6zM496 248c0-23.2-1.6-24-36.8-24-20 0-61.6-4-92-8.8-31.2-4.8-57.6-7.2-59.2-5.6-1.6 0.8-4.8 16-8 32.8l-5.6 29.6h201.6v-24zM724 242.4c-3.2-16.8-6.4-32-8-32.8-1.6-1.6-28 0.8-59.2 5.6-30.4 4.8-72 8.8-92 8.8-35.2 0-36.8 0.8-36.8 24v24h201.6l-5.6-29.6zM496 84c0-83.2-2.4-108-10.4-108-24 0-84.8 48.8-109.6 87.2-16 24.8-32.8 40.8-41.6 40.8-22.4 0-17.6-25.6 13.6-72 24.8-37.6 26.4-40.8 9.6-36-60 18.4-196.8 112-182.4 126.4 3.2 3.2 28 13.6 53.6 21.6 47.2 14.4 47.2 14.4 60-1.6 16-20.8 43.2-14.4 36.8 9.6-4.8 17.6 12.8 23.2 106.4 32 32.8 3.2 60.8 6.4 62.4 7.2 0.8 0 1.6-48 1.6-107.2zM686.4 170.4c16-6.4 16-7.2-6.4-52.8-31.2-61.6-61.6-100-97.6-122.4-53.6-33.6-54.4-32.8-54.4 87.2v106.4l71.2-6.4c39.2-3.2 78.4-8.8 87.2-12zM843.2 126.4c13.6-7.2 12-10.4-20-38.4-35.2-30.4-122.4-80.8-157.6-92-17.6-4.8-16.8-2.4 10.4 37.6 16.8 23.2 38.4 60.8 48 84l19.2 41.6 42.4-12c23.2-7.2 48.8-16.8 57.6-20.8zM203.2 517.6c-2.4-6.4-3.2-41.6-1.6-78.4 2.4-60.8 4-67.2 18.4-67.2 13.6 0 16.8 6.4 20 38.4l4 38.4 30.4-40c18.4-25.6 36-40.8 46.4-40.8 15.2 0 16 4 13.6 78.4-2.4 71.2-4 77.6-18.4 77.6-12.8 0-16.8-6.4-20-37.6l-4-37.6-28 39.2c-27.2 38.4-52 50.4-60.8 29.6zM360 448v-80h64c58.4 0 64 1.6 64 16s-5.6 16-48 16c-42.4 0-48 1.6-48 16s5.6 16 44 16c38.4 0 44 1.6 44 16s-5.6 16-44 16c-38.4 0-44 1.6-44 16s5.6 16 48 16c42.4 0 48 1.6 48 16s-5.6 16-64 16h-64v-80zM508 520.8c-2.4-4.8 3.2-34.4 12-66.4 9.6-32 19.2-64.8 20.8-72 2.4-8 11.2-14.4 19.2-14.4 11.2 0 18.4 9.6 26.4 37.6l11.2 37.6 9.6-38.4c8-32 12-37.6 26.4-35.2 13.6 1.6 20 14.4 35.2 70.4 23.2 84.8 24 89.6 1.6 86.4-12.8-1.6-20.8-11.2-27.2-34.4-8-26.4-10.4-29.6-15.2-16-15.2 44.8-20.8 52.8-33.6 50.4-8-1.6-16.8-14.4-21.6-28.8-8.8-32.8-15.2-32.8-24.8 0-8 26.4-29.6 39.2-40 23.2zM712 512c-8.8-8.8-16-20.8-16-26.4 0-20 24.8-44.8 54.4-53.6 38.4-12.8 46.4-20.8 26.4-26.4-9.6-2.4-24.8 2.4-36 11.2-23.2 18.4-33.6 19.2-40 3.2-11.2-29.6 16-52 64.8-52 85.6 0 87.2 81.6 2.4 100-24 5.6-32.8 19.2-13.6 20.8 20.8 2.4 33.6-2.4 43.2-14.4 12-16 34.4-8 34.4 12.8 0 38.4-88 56.8-120 24.8z" />
<glyph unicode="&#xe904;" glyph-name="play-button" d="M385.6 948c-24-5.6-73.6-25.6-112-44-98.4-48.8-171.2-123.2-220-224.8-43.2-88.8-53.6-135.2-53.6-231.2s10.4-142.4 53.6-231.2c50.4-104.8 122.4-176.8 227.2-227.2 88.8-43.2 135.2-53.6 231.2-53.6s142.4 10.4 231.2 53.6c60 28.8 86.4 47.2 132.8 94.4 47.2 46.4 65.6 72.8 94.4 132.8 43.2 88.8 53.6 135.2 53.6 231.2s-10.4 142.4-53.6 231.2c-50.4 104.8-122.4 176.8-227.2 227.2-41.6 20-94.4 40-117.6 44.8-56 12-187.2 10.4-240-3.2zM628.8 896c80.8-20.8 154.4-64.8 216-128.8 60.8-64.8 95.2-124.8 115.2-204 20-78.4 20-152 0-230.4-20-79.2-54.4-139.2-115.2-204-118.4-123.2-284-171.2-448-128.8-79.2 20-139.2 54.4-204 115.2-123.2 118.4-171.2 284-128.8 448 20 79.2 54.4 139.2 115.2 204 118.4 123.2 284 171.2 449.6 128.8zM388 653.6c-2.4-5.6-3.2-101.6-2.4-213.6 2.4-197.6 3.2-204 18.4-205.6 8.8-0.8 81.6 40.8 168 96.8 125.6 80.8 152 101.6 152 116.8s-26.4 36-152 116.8c-148.8 96-176.8 109.6-184 88.8zM644 448c0-4-48-37.6-105.6-75.2l-106.4-68v286.4l106.4-68c57.6-37.6 105.6-71.2 105.6-75.2z" />
<glyph unicode="&#xe905;" glyph-name="subscribe" d="M627.2 820c-7.2-17.6 3.2-28 27.2-28 32 0 89.6-32 115.2-64 12-15.2 27.2-48 32.8-72 8.8-33.6 15.2-44 26.4-44 12.8 0 15.2 5.6 13.6 37.6-1.6 46.4-34.4 110.4-71.2 138.4-50.4 38.4-134.4 57.6-144 32zM264 736c-23.2-23.2-21.6-74.4 3.2-93.6 15.2-12 16.8-18.4 11.2-34.4-13.6-35.2-8.8-108.8 8.8-142.4 8.8-17.6 37.6-50.4 64-73.6 61.6-53.6 86.4-92 104-162.4 8-31.2 19.2-58.4 24.8-60 5.6-2.4 32 18.4 59.2 44.8 40 39.2 52 46.4 64.8 41.6 44.8-18.4 108.8 2.4 129.6 42.4 8.8 17.6 11.2 37.6 8 70.4l-4 45.6 43.2 42.4c56.8 56 56 72.8-3.2 80.8-63.2 9.6-102.4 33.6-173.6 105.6-47.2 48-72.8 68-96.8 75.2-40.8 12-80.8 12-112.8 0.8-21.6-7.2-27.2-5.6-44.8 12-25.6 25.6-63.2 27.2-85.6 4.8zM508.8 670.4c17.6-10.4 56-44 85.6-74.4l52.8-56.8-190.4-190.4-58.4 55.2c-67.2 63.2-88 96-88 144 0 103.2 112 171.2 198.4 122.4zM751.2 499.2c8-2.4-33.6-49.6-119.2-135.2l-131.2-132-11.2 37.6-11.2 36.8 106.4 106.4c103.2 104 105.6 105.6 130.4 97.6 13.6-4 30.4-9.6 36-11.2zM146.4 338.4c-16.8-5.6-12-59.2 8.8-102.4 20-44 64.8-88 105.6-104.8 36.8-15.2 90.4-14.4 96.8 0.8 6.4 17.6 0.8 20.8-42.4 28.8-74.4 14.4-129.6 69.6-136.8 138.4-4 35.2-12.8 45.6-32 39.2z" />
<glyph unicode="&#xe906;" glyph-name="progress" d="M792.8 604c-21.6-9.6-83.2-12-345.6-12-313.6 0-319.2 0-319.2-16 0-15.2 5.6-16 72-16h72v-224h-110.4c-75.2 0-113.6 3.2-120 9.6-13.6 13.6-13.6 191.2 0 204.8 5.6 5.6 21.6 9.6 36 9.6 20.8 0 26.4 3.2 26.4 16 0 13.6-5.6 16-38.4 16-62.4 0-65.6-8-65.6-145.6 0-102.4 1.6-117.6 14.4-129.6 13.6-12 44.8-12.8 318.4-11.2 263.2 2.4 303.2 4 303.2 14.4 0 8-9.6 12.8-25.6 14.4l-26.4 2.4v223.2h141.6l-19.2-37.6c-16-32-19.2-46.4-16-84.8 2.4-24.8 11.2-58.4 20-73.6l16.8-27.2-33.6-2.4c-23.2-1.6-33.6-6.4-33.6-14.4 0-8.8 14.4-12.8 60-16.8 32.8-2.4 72-8.8 86.4-14.4 42.4-16.8 108-8 148 20 52 36.8 70.4 75.2 68 143.2-2.4 50.4-4 56-20 58.4-16.8 2.4-17.6 0-16-48 1.6-87.2-40-135.2-121.6-140.8-36.8-2.4-49.6 0-72 16-46.4 31.2-60.8 57.6-60.8 110.4s14.4 79.2 60.8 110.4c37.6 26.4 105.6 22.4 145.6-8.8 16-12 32-21.6 36-21.6 15.2 0 17.6 26.4 4 42.4-36.8 40.8-128.8 57.6-185.6 33.6zM544 448v-112h-240v224h240v-112z" />
<glyph unicode="&#xe907;" glyph-name="contact-book" d="M237.6 924.8c-16-6.4-36-16-43.2-21.6-20-16.8-34.4-58.4-34.4-99.2v-36h-35.2c-29.6 0-36.8-3.2-41.6-17.6-6.4-22.4 14.4-38.4 50.4-38.4h26.4v-135.2l-32.8-2.4c-63.2-4.8-60.8-54.4 1.6-54.4h31.2v-143.2l-37.6-2.4c-35.2-2.4-38.4-4-38.4-22.4s3.2-20 38.4-22.4l37.6-2.4v-142.4l-32.8-2.4c-63.2-4.8-60.8-54.4 1.6-54.4h31.2v-36.8c0-47.2 19.2-87.2 52-107.2 24.8-15.2 39.2-16 333.6-16 307.2 0 308 0 335.2 18.4 56 37.6 55.2 28.8 55.2 460.8 0 370.4-0.8 389.6-16 420.8-31.2 64-29.6 64-360 65.6-231.2 1.6-298.4 0-322.4-8.8zM842.4 870.4c37.6-20 36.8-13.6 37.6-420v-385.6l-38.4-44.8-279.2-2.4c-152.8-1.6-286.4 0-296.8 2.4-32.8 8-49.6 32.8-49.6 72v36h32c56 0 53.6 49.6-3.2 54.4l-28.8 2.4v142.4l34.4 2.4c29.6 2.4 33.6 4.8 33.6 22.4s-4 20-33.6 22.4l-34.4 2.4v143.2h32c56 0 53.6 49.6-3.2 54.4l-28.8 2.4v135.2h22.4c29.6 0 52 16.8 48.8 36.8-2.4 12-11.2 16-37.6 17.6l-33.6 2.4v36c0 27.2 4.8 40.8 20 55.2l19.2 20h284.8c201.6 0 290.4-2.4 302.4-9.6zM499.2 672c-21.6-8.8-57.6-52-64-76.8-7.2-26.4 0.8-72.8 16.8-96 27.2-42.4 108-58.4 154.4-30.4 49.6 28.8 69.6 111.2 38.4 158.4-28.8 44.8-96 65.6-145.6 44.8zM591.2 603.2c19.2-24 20.8-34.4 8-62.4-26.4-57.6-111.2-36-111.2 28.8 0 51.2 71.2 73.6 103.2 33.6zM489.6 413.6c-68.8-26.4-116.8-94.4-112-160l2.4-33.6h336v40.8c-0.8 54.4-35.2 111.2-82.4 137.6-40 22.4-107.2 29.6-144 15.2zM613.6 347.2c11.2-8.8 27.2-28 36-43.2l14.4-28-112.8-2.4c-62.4-0.8-115.2 0-117.6 1.6-7.2 8 28 57.6 55.2 75.2 21.6 15.2 34.4 18.4 65.6 15.2 21.6-1.6 48-10.4 59.2-18.4z" />
<glyph unicode="&#xe908;" glyph-name="project-management" d="M724.8 942.4c-8.8-12-12.8-36-12.8-68v-50.4h-25.6c-57.6 0-62.4-16.8-62.4-199.2v-152.8h-20c-11.2 0-20 4-20 8 0 4.8-12.8 16-28 25.6-33.6 19.2-54.4 53.6-43.2 71.2 32.8 51.2-34.4 124-88 95.2-22.4-11.2-62.4 7.2-73.6 33.6-11.2 28-29.6 38.4-66.4 38.4-29.6 0-48-13.6-56.8-40.8-8-25.6-46.4-38.4-84.8-28-29.6 8-32.8 6.4-59.2-19.2-29.6-28-33.6-46.4-19.2-73.6 12.8-24-5.6-60.8-37.6-74.4-26.4-11.2-27.2-12-27.2-60 0-47.2 0.8-48.8 24-57.6 36-12 51.2-46.4 39.2-87.2-9.6-31.2-9.6-32.8 19.2-61.6 28-28 30.4-28.8 60.8-20.8 38.4 10.4 76.8-2.4 84.8-28 8.8-27.2 27.2-40.8 56.8-40.8 36.8 0 55.2 10.4 66.4 38.4 11.2 26.4 51.2 44.8 73.6 33.6 53.6-28.8 120.8 44 88 95.2-11.2 17.6 9.6 52 43.2 71.2 15.2 9.6 28 20.8 28 25.6 0 4 8.8 8 20 8h20v-152.8c0-182.4 4.8-199.2 62.4-199.2h25.6v-50.4c0-84.8 0.8-85.6 156-85.6 108 0 132.8 2.4 143.2 12.8s12.8 35.2 12.8 143.2c0 166.4 10.4 156-156 156-116 0-121.6-0.8-138.4-18.4-14.4-15.2-17.6-28-17.6-68 0-47.2-0.8-49.6-20-49.6h-20v312h20c19.2 0 20-2.4 20-48 0-41.6 3.2-52 20-68.8 20-20 20.8-20 143.2-17.6 88.8 1.6 126.4 5.6 135.2 13.6 12 8.8 13.6 29.6 13.6 144.8s-1.6 136-13.6 144.8c-8.8 8-46.4 12-135.2 13.6-122.4 2.4-123.2 2.4-143.2-17.6-16.8-16.8-20-27.2-20-68.8 0-45.6-0.8-48-20-48h-20v312h20c19.2 0 20-1.6 20-50.4 0-42.4 3.2-53.6 18.4-68 17.6-16.8 26.4-17.6 138.4-17.6 164.8 0 155.2-9.6 155.2 156 0 108-2.4 132.8-12.8 143.2s-35.2 12.8-143.2 12.8c-126.4 0-131.2-0.8-143.2-17.6zM982.4 806.4l-2.4-114.4-103.2-2.4c-68.8-1.6-106.4 0.8-113.6 7.2-8.8 7.2-11.2 33.6-11.2 111.2 0 55.2 2.4 104 5.6 106.4 2.4 3.2 55.2 5.6 116 5.6h111.2l-2.4-113.6zM316.8 674.4c4-13.6 16.8-24.8 46.4-37.6 36-16.8 44-17.6 65.6-8.8s27.2 8.8 37.6-1.6c8.8-9.6 9.6-17.6 3.2-38.4-12-40 12.8-98.4 48-112.8 17.6-7.2 26.4-16.8 26.4-27.2s-8.8-20-26.4-27.2c-36-14.4-60.8-75.2-47.2-112 8-19.2 7.2-26.4-3.2-37.6-11.2-12-16-12.8-37.6-4-22.4 9.6-30.4 8.8-66.4-8-30.4-12.8-42.4-23.2-46.4-38.4-7.2-30.4-42.4-28.8-53.6 1.6-9.6 28-80 61.6-104 49.6-38.4-20.8-64.8 0-48 37.6 13.6 30.4-16 100-48 112s-32 40.8 0 52.8c32 12 61.6 81.6 48 111.2-6.4 15.2-6.4 24.8 0 36.8 8 16 10.4 16 36 5.6 24.8-10.4 30.4-9.6 68 5.6 28.8 12.8 42.4 23.2 45.6 36 9.6 37.6 47.2 40 56 4.8zM984 448v-112.8l-228 4.8-2.4 99.2c-0.8 55.2 0 104.8 1.6 110.4 3.2 8 31.2 10.4 116.8 10.4h112v-112zM982.4 89.6l2.4-114.4-228.8 4.8-2.4 103.2c-1.6 69.6 0.8 106.4 7.2 113.6 7.2 9.6 32 11.2 114.4 9.6l104.8-2.4 2.4-114.4zM228 612c-95.2-36.8-140-156.8-91.2-244 53.6-97.6 169.6-122.4 260.8-56.8 96.8 69.6 83.2 235.2-23.2 289.6-42.4 21.6-105.6 26.4-146.4 11.2zM353.6 563.2c28-14.4 52-46.4 64-84 25.6-88-66.4-182.4-155.2-159.2-104 28.8-136.8 150.4-60 222.4 41.6 39.2 99.2 47.2 151.2 20.8zM228.8 535.2c-80.8-63.2-43.2-191.2 56.8-191.2 44.8 0 78.4 17.6 95.2 49.6 27.2 52 9.6 122.4-36.8 146.4-34.4 17.6-89.6 15.2-115.2-4.8zM332 492c12.8-12 20-28.8 20-44 0-31.2-31.2-64-60-64-25.6 0-68 40-68 64s42.4 64 68 64c11.2 0 29.6-8.8 40-20z" />
<glyph unicode="&#xe909;" glyph-name="idea" d="M733.6 955.2c-3.2-3.2-5.6-16-5.6-28 0-25.6-15.2-33.6-36-18.4-24 17.6-40.8 13.6-64-17.6l-21.6-28.8 16.8-23.2c19.2-26.4 13.6-28.8-28.8-11.2-15.2 6.4-32.8 12-38.4 12-4.8 0-22.4-29.6-38.4-65.6l-28.8-66.4-0.8 118.4c0 112-0.8 117.6-16 117.6-13.6 0-16-5.6-16-40 0-39.2 0-39.2-29.6-44-87.2-15.2-159.2-56-209.6-119.2-27.2-34.4-30.4-48.8-12.8-55.2 7.2-3.2 28 12.8 56 41.6 46.4 48.8 107.2 82.4 166.4 92.8l29.6 5.6v-634.4l-108 4.8-2.4 40c-2.4 37.6-4.8 41.6-39.2 63.2-39.2 25.6-75.2 68.8-101.6 124.8-14.4 30.4-16.8 51.2-16.8 128 0 76-2.4 92-12 92-20.8 0-33.6-57.6-29.6-129.6 5.6-99.2 55.2-192.8 128.8-243.2 24.8-16 28.8-24 28.8-49.6 0-21.6 5.6-36 19.2-49.6 15.2-15.2 19.2-29.6 22.4-72 4-64 24.8-90.4 76.8-97.6 32.8-4.8 33.6-5.6 33.6-35.2 0-25.6 2.4-31.2 16-31.2 15.2 0 16 5.6 16 184.8 0 144.8 2.4 184 10.4 180.8 68.8-26.4 133.6-59.2 133.6-67.2 0-13.6-4.8-12.8-28.8 3.2-20 12.8-20.8 12-45.6-12l-24.8-25.6 13.6-24 14.4-24-24-4.8c-23.2-4.8-24.8-7.2-24.8-43.2s1.6-38.4 24.8-43.2l24-4.8-14.4-24-13.6-24 24.8-25.6c23.2-23.2 27.2-24.8 45.6-15.2 22.4 12.8 36.8 6.4 36.8-16 0-12.8 5.6-15.2 40-15.2s40 2.4 40 15.2c0 22.4 14.4 28.8 36.8 16 18.4-9.6 22.4-8 44.8 14.4 24 24.8 24.8 25.6 12 45.6-17.6 26.4-17.6 26.4 11.2 32.8 24 5.6 24.8 6.4 21.6 44.8l-2.4 39.2h52c49.6 0 52.8 0.8 85.6 33.6l34.4 33.6v292.8h-184.8l13.6 25.6c8.8 16.8 11.2 34.4 8 56-5.6 34.4 3.2 39.2 33.6 18.4 20.8-15.2 40-7.2 60.8 23.2 16 24.8 16 40 0.8 52.8-19.2 16-13.6 31.2 14.4 38.4 24 6.4 25.6 8.8 28 45.6 2.4 40.8-4.8 52-36 52-24.8 0-29.6 12.8-13.6 40 14.4 23.2 14.4 24-5.6 44.8-31.2 33.6-43.2 36.8-66.4 18.4-24-19.2-41.6-11.2-46.4 19.2-2.4 15.2-8 17.6-42.4 20-22.4 1.6-43.2 0-46.4-3.2zM791.2 907.2c6.4-36 52-53.6 84.8-32 20.8 13.6 37.6 3.2 20.8-13.6-21.6-21.6 0-76.8 32.8-83.2 28.8-5.6 28.8-23.2 0-28.8-29.6-6.4-46.4-51.2-28-76.8 16-23.2 6.4-33.6-19.2-20.8-14.4 8-25.6 8.8-36 3.2-27.2-14.4-26.4 14.4 0.8 36.8 65.6 55.2 21.6 156-68 156-24 0-35.2-5.6-58.4-30.4-32.8-33.6-52-36-44-4.8 3.2 12.8 0.8 24.8-8 34.4-17.6 19.2-4.8 28 21.6 16 31.2-14.4 68 5.6 74.4 39.2 5.6 28 21.6 31.2 26.4 4.8zM661.6 754.4c48-20 88-38.4 89.6-39.2 0.8-1.6-7.2-22.4-18.4-48-11.2-24.8-20.8-48.8-20.8-52.8s23.2-18.4 52-31.2l51.2-24-12.8-28c-12-24-16.8-27.2-42.4-27.2s-35.2-6.4-67.2-40l-36.8-39.2v-72.8c0-39.2-2.4-72-5.6-71.2-4 0-40.8 15.2-82.4 34.4l-76 33.6-2.4 128-1.6 128 40.8 93.6c22.4 51.2 42.4 93.6 44 93.6s41.6-16.8 88.8-37.6zM968 220.8l-16-16v29.6c0 24-3.2 29.6-16 29.6-14.4 0-16-5.6-16-44v-44h-52c-42.4 0-50.4 2.4-47.2 12 3.2 6.4-5.6 21.6-20 36-23.2 24-24.8 24-47.2 12.8-25.6-13.6-33.6-10.4-33.6 12.8 0 8-5.6 16.8-12 19.2-9.6 4-12 19.2-12 68v63.2h224v-44c0-38.4 1.6-44 16-44s16 5.6 16 45.6c0 32 4 49.6 14.4 60.8 12.8 14.4 13.6 11.2 16-83.2 1.6-89.6 0.8-100-14.4-114.4zM688 215.2c0-20.8 36.8-35.2 64.8-24.8 20 7.2 20.8 6.4 13.6-13.6-10.4-28 4-64.8 24.8-64.8 8.8 0 18.4-4 20.8-8s-2.4-8-11.2-8c-8.8 0-22.4-9.6-30.4-20.8-10.4-16.8-12-25.6-4.8-44 10.4-25.6 8.8-27.2-12.8-13.6-23.2 14.4-64.8-5.6-64.8-30.4 0-10.4-3.2-19.2-8-19.2-4 0-8 8.8-8 19.2 0 24.8-41.6 44.8-64.8 30.4-21.6-13.6-23.2-12-12.8 13.6 7.2 18.4 5.6 27.2-4.8 44-8 11.2-20.8 20.8-29.6 20.8s-16 4-16 8c0 4.8 8.8 8 19.2 8 24.8 0 44.8 41.6 30.4 64.8-13.6 21.6-12 23.2 13.6 12.8 18.4-7.2 27.2-5.6 44 4.8 11.2 8 20.8 21.6 20.8 30.4s4 13.6 8 11.2c4.8-2.4 8-12 8-20.8zM644 166.4c-25.6-14.4-35.2-32-36-63.2 0-74.4 100-99.2 134.4-33.6 32.8 61.6-37.6 131.2-98.4 96.8z" />
<glyph unicode="&#xe90a;" glyph-name="agile" d="M121.6 934.4c-13.6-13.6-13.6-223.2 0-236.8s223.2-13.6 236.8 0c13.6 13.6 13.6 223.2 0 236.8s-223.2 13.6-236.8 0zM326.4 902.4c12.8-12.8 12.8-160 0-172.8s-160-12.8-172.8 0c-12.8 12.8-12.8 160 0 172.8s160 12.8 172.8 0zM456 907.2c-28.8-19.2-52.8-38.4-54.4-41.6-2.4-7.2 104.8-81.6 116-81.6 4 0 11.2 7.2 16 15.2 8.8 13.6 7.2 18.4-12 32l-21.6 16.8 24-4c13.6-1.6 40.8-5.6 60.8-8 85.6-10.4 220-101.6 260-176 15.2-29.6 40-37.6 48.8-15.2 5.6 16-46.4 91.2-88.8 128.8-73.6 63.2-177.6 106.4-260 106.4l-44.8 0.8 21.6 16c19.2 13.6 20.8 18.4 12 32-4.8 8-12.8 15.2-17.6 14.4-4 0-31.2-16-60-36zM443.2 644c-3.2-8-10.4-10.4-20.8-7.2-23.2 7.2-104.8-73.6-98.4-97.6 2.4-11.2-0.8-19.2-8-22.4-17.6-6.4-17.6-131.2 0-137.6 7.2-3.2 10.4-11.2 8-22.4-6.4-24 75.2-104.8 98.4-97.6 10.4 3.2 17.6 0.8 20.8-7.2 6.4-17.6 131.2-17.6 137.6 0 3.2 8 10.4 10.4 20.8 7.2 23.2-7.2 104.8 73.6 98.4 97.6-2.4 11.2 0.8 19.2 8 22.4 17.6 6.4 17.6 131.2 0 137.6-8 3.2-10.4 10.4-7.2 20.8 7.2 23.2-73.6 104.8-97.6 98.4-11.2-2.4-19.2 0.8-22.4 8-6.4 17.6-131.2 17.6-137.6 0zM556 603.2c14.4-14.4 26.4-19.2 38.4-16 24.8 6.4 63.2-31.2 56.8-56-3.2-12.8 1.6-24 16-39.2 27.2-27.2 27.2-60.8 0-88-14.4-14.4-19.2-26.4-16-38.4 6.4-24.8-31.2-63.2-56-56.8-12.8 3.2-24-1.6-39.2-16-27.2-27.2-60.8-27.2-88 0-15.2 14.4-26.4 19.2-39.2 16-24.8-6.4-62.4 32-56 56.8 3.2 12-1.6 24-16 38.4-27.2 27.2-27.2 60.8 0 88 14.4 14.4 19.2 26.4 16 38.4-6.4 24.8 31.2 63.2 56 56.8 12.8-3.2 23.2 0.8 36.8 15.2 25.6 27.2 63.2 28 90.4 0.8zM441.6 560c-38.4-24-57.6-60-57.6-112s19.2-88 57.6-112c36-21.6 104.8-21.6 140.8 0 38.4 24 57.6 60 57.6 112s-19.2 88-57.6 112c-36 21.6-104.8 21.6-140.8 0zM572.8 508.8c22.4-22.4 27.2-33.6 27.2-60.8s-4.8-38.4-27.2-60.8c-22.4-22.4-33.6-27.2-60.8-27.2s-38.4 4.8-60.8 27.2c-22.4 22.4-27.2 33.6-27.2 60.8s4.8 38.4 27.2 60.8c22.4 22.4 33.6 27.2 60.8 27.2s38.4-4.8 60.8-27.2zM464 496c-10.4-10.4-16-26.4-16-48s5.6-37.6 16-48c10.4-10.4 26.4-16 48-16 42.4 0 64 21.6 64 64 0 21.6-5.6 37.6-16 48s-26.4 16-48 16c-21.6 0-37.6-5.6-48-16zM96 579.2c-19.2-63.2-21.6-181.6-4.8-237.6l11.2-36.8-31.2 17.6c-27.2 15.2-32.8 16-39.2 5.6-14.4-21.6-8.8-28 56.8-63.2 46.4-24.8 66.4-32 71.2-25.6 3.2 5.6 12 38.4 20 73.6 12.8 55.2 13.6 65.6 3.2 72-21.6 13.6-29.6 7.2-35.2-30.4l-6.4-38.4-11.2 36c-15.2 47.2-9.6 174.4 8.8 227.2 12 32 12 40 3.2 45.6-21.6 14.4-30.4 5.6-46.4-45.6zM761.6 566.4c-13.6-13.6-13.6-223.2 0-236.8s223.2-13.6 236.8 0c13.6 13.6 13.6 223.2 0 236.8s-223.2 13.6-236.8 0zM966.4 534.4c12.8-12.8 12.8-160 0-172.8s-160-12.8-172.8 0c-12.8 12.8-12.8 160 0 172.8s160 12.8 172.8 0zM812.8 260.8c-65.6-18.4-73.6-24-61.6-44 6.4-9.6 14.4-10.4 44-3.2 32.8 7.2 35.2 7.2 28.8-5.6-24-45.6-128.8-116.8-207.2-140.8-56-17.6-163.2-15.2-224 4.8-52 17.6-64 15.2-64.8-13.6 0-19.2 100.8-42.4 183.2-42.4 128.8 0 222.4 38.4 310.4 127.2l50.4 51.2v-32.8c0-35.2 7.2-44.8 28-36.8 12 4.8 12.8 12.8 8 62.4-6.4 73.6-12 92.8-23.2 92-4.8-0.8-37.6-8.8-72-18.4zM25.6 198.4c-13.6-13.6-13.6-223.2 0-236.8s223.2-13.6 236.8 0c13.6 13.6 13.6 223.2 0 236.8s-223.2 13.6-236.8 0zM230.4 166.4c12.8-12.8 12.8-160 0-172.8s-160-12.8-172.8 0c-12.8 12.8-12.8 160 0 172.8s160 12.8 172.8 0z" />
<glyph unicode="&#xe90b;" glyph-name="blog" d="M40 944c-5.6-9.6-7.2-100-6.4-257.6 2.4-236 2.4-242.4 18.4-242.4 15.2 0 16 6.4 18.4 162.4l1.6 161.6h760v-40c0-31.2-7.2-55.2-32-104-36-72-40-96-16-96 11.2 0 20 9.6 28.8 32 7.2 17.6 14.4 32 16 32 2.4 0 21.6-8.8 43.2-20 35.2-17.6 39.2-22.4 32.8-38.4-16-39.2-152-317.6-156-317.6-9.6 0-76.8 35.2-76.8 40.8 0 2.4 23.2 54.4 52 115.2 40.8 85.6 50.4 112.8 43.2 120.8-15.2 18.4-22.4 12.8-44.8-32.8l-21.6-44h-226.4c-220.8 0-226.4 0-226.4-16s5.6-16 216-16c133.6 0 216-3.2 216-8 0-4-6.4-20-13.6-36l-13.6-28h-509.6l2.4-18.4 2.4-17.6 240.8-2.4 240.8-1.6-4.8-30.4-4.8-29.6-236-4c-229.6-4-236-4.8-236-20s6.4-16 235.2-18.4l235.2-1.6-4-46.4c-2.4-24.8-2.4-50.4-0.8-55.2 8-22.4 39.2-8 100 47.2 52 47.2 69.6 68.8 91.2 114.4l25.6 56 0.8-157.6 0.8-158.4h-760l-1.6 217.6c-2.4 212-3.2 218.4-18.4 218.4s-16-6.4-18.4-218.4c-0.8-141.6 0.8-224 6.4-233.6 8-15.2 19.2-16 412-16 390.4 0 404 0.8 412 15.2 4.8 9.6 8 94.4 8 218.4v202.4l60.8 127.2c47.2 100 59.2 132 55.2 149.6-6.4 28.8-33.6 50.4-80 64l-36 10.4v103.2c0 56.8-4 109.6-8 118.4-8 14.4-21.6 15.2-412 15.2-392.8 0-404-0.8-412-16zM832 868v-60h-760v120h760v-60zM152 864c0-15.2 5.6-16 180-16s180 0.8 180 16c0 15.2-5.6 16-180 16s-180-0.8-180-16zM187.2 669.6c-2.4-6.4-3.2-41.6-1.6-78.4l2.4-67.2 43.2-2.4c31.2-1.6 46.4 0.8 57.6 11.2 16 14.4 20.8 55.2 7.2 63.2-4 2.4-8 16.8-8 31.2 0 15.2-6.4 32-14.4 39.2-18.4 16.8-80 18.4-86.4 3.2zM472 664c-12.8-12.8-16-26.4-16-67.2 0-44.8 2.4-53.6 17.6-64 28-20 66.4-16 85.6 8 24.8 31.2 23.2 93.6-3.2 119.2-24 24.8-61.6 26.4-84 4zM604.8 662.4c-8-11.2-12.8-35.2-12.8-67.2 0-59.2 13.6-75.2 62.4-75.2 39.2 0 65.6 20.8 65.6 52 0 44-64.8 71.2-70.4 30.4-2.4-14.4 1.6-18.4 13.6-18.4 9.6 0 16.8-4.8 16.8-12 0-8-8-12-24-12-23.2 0-24 0.8-24 39.2v40l34.4 2.4c28 1.6 34.4 5.6 36 20.8 2.4 16 0 17.6-41.6 17.6-36 0-46.4-3.2-56-17.6z" />
<glyph unicode="&#xe90c;" glyph-name="subscribe1" d="M627.2 820c-7.2-17.6 3.2-28 27.2-28 32 0 89.6-32 115.2-64 12-15.2 27.2-48 32.8-72 8.8-33.6 15.2-44 26.4-44 12.8 0 15.2 5.6 13.6 37.6-1.6 46.4-34.4 110.4-71.2 138.4-50.4 38.4-134.4 57.6-144 32zM264 736c-23.2-23.2-21.6-74.4 3.2-93.6 15.2-12 16.8-18.4 11.2-34.4-13.6-35.2-8.8-108.8 8.8-142.4 8.8-17.6 37.6-50.4 64-73.6 61.6-53.6 86.4-92 104-162.4 8-31.2 19.2-58.4 24.8-60 5.6-2.4 32 18.4 59.2 44.8 40 39.2 52 46.4 64.8 41.6 44.8-18.4 108.8 2.4 129.6 42.4 8.8 17.6 11.2 37.6 8 70.4l-4 45.6 43.2 42.4c56.8 56 56 72.8-3.2 80.8-63.2 9.6-102.4 33.6-173.6 105.6-47.2 48-72.8 68-96.8 75.2-40.8 12-80.8 12-112.8 0.8-21.6-7.2-27.2-5.6-44.8 12-25.6 25.6-63.2 27.2-85.6 4.8zM508.8 670.4c17.6-10.4 56-44 85.6-74.4l52.8-56.8-190.4-190.4-58.4 55.2c-67.2 63.2-88 96-88 144 0 103.2 112 171.2 198.4 122.4zM751.2 499.2c8-2.4-33.6-49.6-119.2-135.2l-131.2-132-11.2 37.6-11.2 36.8 106.4 106.4c103.2 104 105.6 105.6 130.4 97.6 13.6-4 30.4-9.6 36-11.2zM146.4 338.4c-16.8-5.6-12-59.2 8.8-102.4 20-44 64.8-88 105.6-104.8 36.8-15.2 90.4-14.4 96.8 0.8 6.4 17.6 0.8 20.8-42.4 28.8-74.4 14.4-129.6 69.6-136.8 138.4-4 35.2-12.8 45.6-32 39.2z" />
<glyph unicode="&#xe90d;" glyph-name="play" d="M372 945.6c-179.2-53.6-313.6-191.2-359.2-367.2-16.8-64-16.8-196.8 0-261.6 45.6-176 198.4-328 372-368.8 65.6-15.2 188.8-15.2 253.6 0 177.6 41.6 326.4 189.6 372.8 369.6 16.8 64 16.8 196.8 0 261.6-17.6 67.2-68 161.6-115.2 215.2-51.2 56.8-136.8 113.6-210.4 140-76.8 28-238.4 33.6-313.6 11.2zM615.2 892c200.8-48 352.8-240 352.8-446.4-0.8-244.8-212-454.4-458.4-453.6-244.8 0.8-454.4 212-453.6 458.4 0 116 49.6 232 136 317.6 112.8 113.6 271.2 159.2 423.2 124zM364.8 659.2c-11.2-10.4-12.8-40.8-12.8-211.2 0-214.4 1.6-224 42.4-224 9.6 0 84.8 44.8 168 100 138.4 92.8 149.6 101.6 149.6 124s-11.2 31.2-149.6 124c-83.2 55.2-158.4 100-168 100s-23.2-5.6-29.6-12.8zM547.2 508c46.4-30.4 84.8-57.6 84.8-60 0-3.2-96.8-68.8-192.8-130.4l-23.2-15.2v291.2l23.2-15.2c12-8 60.8-39.2 108-70.4z" />
<glyph unicode="&#xe90e;" glyph-name="contact-book1" d="M237.6 924.8c-16-6.4-36-16-43.2-21.6-20-16.8-34.4-58.4-34.4-99.2v-36h-35.2c-29.6 0-36.8-3.2-41.6-17.6-6.4-22.4 14.4-38.4 50.4-38.4h26.4v-135.2l-32.8-2.4c-63.2-4.8-60.8-54.4 1.6-54.4h31.2v-143.2l-37.6-2.4c-35.2-2.4-38.4-4-38.4-22.4s3.2-20 38.4-22.4l37.6-2.4v-142.4l-32.8-2.4c-63.2-4.8-60.8-54.4 1.6-54.4h31.2v-36.8c0-47.2 19.2-87.2 52-107.2 24.8-15.2 39.2-16 333.6-16 307.2 0 308 0 335.2 18.4 56 37.6 55.2 28.8 55.2 460.8 0 370.4-0.8 389.6-16 420.8-31.2 64-29.6 64-360 65.6-231.2 1.6-298.4 0-322.4-8.8zM842.4 870.4c37.6-20 36.8-13.6 37.6-420v-385.6l-38.4-44.8-279.2-2.4c-152.8-1.6-286.4 0-296.8 2.4-32.8 8-49.6 32.8-49.6 72v36h32c56 0 53.6 49.6-3.2 54.4l-28.8 2.4v142.4l34.4 2.4c29.6 2.4 33.6 4.8 33.6 22.4s-4 20-33.6 22.4l-34.4 2.4v143.2h32c56 0 53.6 49.6-3.2 54.4l-28.8 2.4v135.2h22.4c29.6 0 52 16.8 48.8 36.8-2.4 12-11.2 16-37.6 17.6l-33.6 2.4v36c0 27.2 4.8 40.8 20 55.2l19.2 20h284.8c201.6 0 290.4-2.4 302.4-9.6zM499.2 672c-21.6-8.8-57.6-52-64-76.8-7.2-26.4 0.8-72.8 16.8-96 27.2-42.4 108-58.4 154.4-30.4 49.6 28.8 69.6 111.2 38.4 158.4-28.8 44.8-96 65.6-145.6 44.8zM591.2 603.2c19.2-24 20.8-34.4 8-62.4-26.4-57.6-111.2-36-111.2 28.8 0 51.2 71.2 73.6 103.2 33.6zM489.6 413.6c-68.8-26.4-116.8-94.4-112-160l2.4-33.6h336v40.8c-0.8 54.4-35.2 111.2-82.4 137.6-40 22.4-107.2 29.6-144 15.2zM613.6 347.2c11.2-8.8 27.2-28 36-43.2l14.4-28-112.8-2.4c-62.4-0.8-115.2 0-117.6 1.6-7.2 8 28 57.6 55.2 75.2 21.6 15.2 34.4 18.4 65.6 15.2 21.6-1.6 48-10.4 59.2-18.4z" />
<glyph unicode="&#xe90f;" glyph-name="team" d="M388 805.6c-17.6-9.6-40-32-50.4-49.6-16-28.8-17.6-39.2-14.4-100 9.6-156 24-214.4 64.8-248 35.2-29.6-3.2-88.8-73.6-112.8l-45.6-15.2 17.6 18.4c16.8 18.4 17.6 20.8 8.8 106.4-14.4 136.8-44 175.2-135.2 175.2-93.6 0-123.2-38.4-136-173.6-8.8-93.6-7.2-104 20.8-118.4 18.4-10.4 18.4-12 5.6-18.4-45.6-24-50.4-36-50.4-119.2 0-72.8 0.8-78.4 16-78.4 14.4 0 16 5.6 16 59.2 0 74.4 3.2 81.6 40 100.8 29.6 15.2 30.4 15.2 44 0 19.2-20.8 60-20.8 87.2 0.8l20.8 16v-88c0-83.2 0.8-88.8 16-88.8 14.4 0 16 5.6 16 64.8 0 52 5.6 83.2 19.2 100.8 0.8 0.8 25.6 11.2 54.4 21.6l52 20 24.8-36c27.2-38.4 49.6-44.8 75.2-21.6 13.6 12 14.4 9.6 14.4-68 0-76 0.8-81.6 16-81.6s16 5.6 16 81.6c0 77.6 0.8 80 14.4 68 25.6-23.2 48-16.8 75.2 21.6l24.8 36 52.8-20c28.8-11.2 56-23.2 60.8-28 4-4 9.6-41.6 10.4-83.2 3.2-68.8 4.8-76 18.4-76s15.2 6.4 15.2 82.4c0 53.6-3.2 85.6-9.6 92-5.6 5.6-6.4 9.6-1.6 9.6s16-8 25.6-18.4c15.2-16 17.6-28 17.6-92 0-68 0.8-73.6 16-73.6s16 5.6 16 74.4c0 68.8 1.6 76 19.2 92.8 16.8 16 22.4 16.8 51.2 8.8 52-13.6 57.6-23.2 57.6-104.8 0-65.6 0.8-71.2 16-71.2s16 5.6 16 82.4c0 99.2-6.4 111.2-68 129.6-46.4 12.8-52 19.2-31.2 36 28.8 24.8 42.4 76.8 48.8 194.4l3.2 69.6h-96.8c-84 0-100.8-2.4-120-16-28-20-43.2-56-37.6-89.6 2.4-14.4 8-47.2 12.8-72.8 4.8-28.8 16-56.8 29.6-75.2 16.8-22.4 19.2-29.6 10.4-35.2-16.8-10.4-43.2-8.8-80.8 6.4-63.2 25.6-89.6 79.2-53.6 111.2 41.6 37.6 53.6 96.8 60.8 293.6l3.2 117.6h-142.4c-132.8 0-144.8-1.6-174.4-18.4zM669.6 706.4c-5.6-116.8-18.4-204.8-32.8-232.8-47.2-91.2-171.2-103.2-232-23.2-20.8 27.2-29.6 58.4-44.8 159.2-10.4 69.6-3.2 112 24.8 141.6 31.2 33.6 60 40 178.4 40.8h110.4l-4-85.6zM217.6 522.4c19.2-16.8 26.4-30.4 33.6-62.4 5.6-22.4 5.6-23.2-8.8-10.4-21.6 20-70.4 38.4-100 38.4-26.4 0-62.4-26.4-62.4-45.6s24-20.8 42.4-4c16 15.2 20 15.2 48.8 5.6 17.6-6.4 38.4-18.4 48-27.2 23.2-23.2 10.4-56-29.6-75.2-28.8-14.4-30.4-14.4-59.2 0-22.4 10.4-33.6 23.2-41.6 46.4-6.4 17.6-15.2 33.6-18.4 34.4-11.2 4.8-7.2 35.2 9.6 69.6 28 58.4 91.2 72 137.6 30.4zM944 527.2c0-12.8-3.2-39.2-7.2-57.6-4.8-18.4-10.4-47.2-12.8-63.2-5.6-36.8-24.8-60.8-56.8-69.6-28.8-8-65.6 5.6-80.8 31.2-12.8 20-28.8 118.4-22.4 142.4 6.4 27.2 46.4 40.8 118.4 41.6h61.6v-24.8zM394.4 679.2c-5.6-5.6-10.4-25.6-10.4-44.8 0-28.8 2.4-34.4 16-34.4 12 0 16 5.6 16 23.2 0 22.4 2.4 24 42.4 28.8 44.8 5.6 111.2-5.6 139.2-24.8 26.4-16.8 44-14.4 40.8 6.4-4.8 33.6-48.8 50.4-146.4 52.8-64 2.4-90.4 0-97.6-7.2z" />
<glyph unicode="&#xe910;" glyph-name="rating" d="M490.4 900c-8.8-6.4-27.2-28-39.2-48-18.4-28.8-30.4-38.4-55.2-44.8-52-13.6-68-28-68-59.2 0-14.4 3.2-28.8 6.4-31.2 4-2.4 16.8-17.6 28-34.4 20.8-29.6 20.8-31.2 9.6-73.6-20.8-80 9.6-104.8 89.6-72 24.8 10.4 52.8 17.6 61.6 16.8 18.4-0.8 29.6 12 23.2 28s-48.8 12.8-96-7.2c-23.2-9.6-44-15.2-45.6-13.6-2.4 2.4 1.6 24.8 8 49.6 12.8 50.4 11.2 58.4-30.4 111.2-25.6 32.8-26.4 31.2 30.4 49.6 35.2 11.2 45.6 20 70.4 56.8 16 24 30.4 44 32 44 2.4 0 11.2-13.6 21.6-29.6 29.6-50.4 47.2-64.8 88-74.4 21.6-5.6 39.2-12 39.2-16 0-3.2-12.8-22.4-28.8-44-30.4-39.2-31.2-45.6-14.4-122.4 4.8-25.6 4.8-25.6-21.6-24-22.4 2.4-27.2 0-27.2-13.6 0-12 8-17.6 30.4-23.2 26.4-6.4 32.8-5.6 47.2 9.6 16.8 16 16.8 19.2 7.2 69.6l-10.4 52.8 28.8 36.8c45.6 59.2 36.8 90.4-31.2 110.4-39.2 11.2-47.2 16.8-68.8 52.8-33.6 54.4-54.4 64.8-84.8 43.2zM203.2 712c-8.8-13.6-24-25.6-36.8-28-34.4-8-42.4-31.2-23.2-63.2 12-18.4 15.2-33.6 12-53.6-7.2-40.8 9.6-52 56-39.2 25.6 7.2 39.2 7.2 51.2 0.8 41.6-22.4 68.8-0.8 60.8 48.8-3.2 19.2-0.8 30.4 8 37.6 7.2 5.6 12.8 20.8 12.8 32.8 0 18.4-5.6 24.8-30.4 34.4-17.6 7.2-34.4 20.8-40 32.8-13.6 30.4-52 28.8-70.4-3.2zM755.2 715.2c-8-11.2-26.4-26.4-42.4-33.6-33.6-16-39.2-34.4-20-64 8.8-13.6 13.6-33.6 12-55.2-1.6-29.6 0-34.4 16.8-38.4 10.4-2.4 28.8-0.8 41.6 4 16 5.6 31.2 5.6 53.6-0.8 40.8-12.8 58.4 0 52.8 40-2.4 20 1.6 36 12 51.2 20.8 29.6 16 47.2-18.4 63.2-16 7.2-34.4 22.4-42.4 33.6-8 12.8-20.8 20.8-32.8 20.8s-24.8-8-32.8-20.8zM51.2 624c-9.6-3.2-24.8-16.8-34.4-28.8-16-20.8-16.8-28.8-16.8-252.8v-232l46.4-46.4h379.2l37.6-40c20.8-21.6 42.4-40 48.8-40s28 18.4 48.8 40l37.6 40h68.8c63.2 0 68.8 1.6 68.8 16 0 15.2-5.6 16-83.2 16h-83.2l-28.8-34.4-28.8-33.6-28.8 34.4-28.8 33.6h-182.4c-194.4 0-216 3.2-231.2 37.6-5.6 12-8.8 89.6-8.8 217.6 0 222.4 1.6 228.8 56 240 20.8 4 28 9.6 28 20.8 0 12-6.4 16.8-24 17.6-12.8 0.8-32-1.6-40.8-5.6zM912 612.8c0-16.8 4-20.8 20-20.8 11.2 0 29.6-8.8 40-20l20-19.2v-200c0-203.2-4-232.8-31.2-246.4-7.2-3.2-54.4-8-104.8-10.4-74.4-3.2-92-6.4-92-16s18.4-12 106.4-14.4l106.4-2.4 23.2 24 24 23.2v465.6l-21.6 24c-16 18.4-32 26.4-56 29.6-32.8 4-34.4 4-34.4-16.8zM186.4 451.2c-2.4-6.4-0.8-16 3.2-20s151.2-6.4 371.2-5.6c356.8 2.4 363.2 2.4 363.2 18.4s-6.4 16-366.4 18.4c-327.2 1.6-366.4 0.8-371.2-11.2zM100 360c-2.4-4-2.4-11.2 0-16 3.2-4.8 150.4-8 416.8-8 405.6 0 411.2 0 411.2 16s-5.6 16-411.2 16c-266.4 0-413.6-3.2-416.8-8zM98.4 267.2c-2.4-6.4-0.8-16 3.2-20s167.2-6.4 415.2-5.6c400.8 2.4 407.2 2.4 407.2 18.4s-6.4 16-410.4 18.4c-367.2 1.6-410.4 0.8-415.2-11.2zM100 176c-2.4-4-2.4-11.2 0-16 3.2-4.8 150.4-8 416.8-8 405.6 0 411.2 0 411.2 16s-5.6 16-411.2 16c-266.4 0-413.6-3.2-416.8-8z" />
<glyph unicode="&#xe911;" glyph-name="fun-fact" d="M757.6 945.6c-7.2-8-13.6-22.4-13.6-31.2s-16-37.6-36-63.2c-38.4-48.8-40.8-61.6-15.2-65.6 11.2-1.6 24 8.8 42.4 35.2 24.8 33.6 28 35.2 35.2 22.4 4.8-8.8 38.4-66.4 74.4-128.8 36-63.2 61.6-114.4 56.8-114.4-5.6 0-45.6-5.6-89.6-12-122.4-17.6-115.2-20-150.4 41.6l-30.4 52.8 20.8 29.6c24.8 36 25.6 48 2.4 48-11.2 0-24.8-10.4-36-26.4-10.4-13.6-44-41.6-76-61.6-45.6-28.8-59.2-40.8-60.8-57.6-1.6-11.2-8.8-24-16-28-7.2-3.2-106.4-8-220-10.4l-207.2-4-19.2-22.4c-19.2-22.4-19.2-24-17.6-172 2.4-126.4 4-149.6 14.4-149.6s12.8 22.4 16 140.8c3.2 102.4 7.2 144 15.2 154.4 9.6 11.2 32.8 12.8 189.6 12.8 169.6 0 179.2-0.8 179.2-15.2 0-8 7.2-24 16.8-36 19.2-24 64-28.8 92.8-8.8 16.8 12 18.4 9.6 68.8-78.4 47.2-81.6 53.6-89.6 76.8-92l24.8-2.4v-126.4c0-112-1.6-128-14.4-139.2s-34.4-13.6-140-13.6h-124.8l-27.2-24-27.2-23.2-45.6 47.2h-126.4c-159.2 0-158.4 0-158.4 100 0 62.4-1.6 68-16 68-15.2 0-16-5.6-16-79.2 0-72.8 1.6-81.6 19.2-102.4l19.2-22.4 264-4.8 22.4-24c28-29.6 51.2-29.6 85.6 0l26.4 24 125.6 2.4c124.8 2.4 125.6 2.4 147.2 24.8l22.4 21.6 2.4 148.8c2.4 120 4.8 148.8 14.4 152.8 14.4 5.6 14.4 48 0 56-8 4.8-12 27.2-13.6 78.4l-3.2 72 102.4 12.8c56.8 6.4 104 9.6 106.4 5.6 8-12 56.8-6.4 69.6 8 28 30.4 16.8 62.4-80.8 229.6l-93.6 160-32.8 2.4c-23.2 1.6-36-1.6-45.6-12.8zM897.6 769.6c47.2-82.4 86.4-155.2 88-161.6 1.6-7.2-3.2-12-12-12-10.4 0-39.2 44-103.2 153.6-81.6 141.6-99.2 185.6-68.8 174.4 5.6-2.4 48.8-72 96-154.4zM631.2 602.4l24-41.6-39.2-24c-28.8-17.6-40.8-21.6-46.4-14.4-14.4 19.2-51.2 87.2-48 89.6 12 12 75.2 42.4 79.2 37.6 3.2-3.2 16.8-24 30.4-47.2zM293.6 443.2c-3.2-3.2-5.6-30.4-5.6-60 0-67.2 15.2-90.4 60-90.4 46.4 0 61.6 23.2 58.4 94.4-2.4 50.4-4 56.8-18.4 56.8s-16.8-6.4-20-56c-3.2-49.6-5.6-56-20-56s-16.8 6.4-20 56c-3.2 41.6-7.2 56.8-16 58.4-7.2 0.8-15.2 0-18.4-3.2zM434.4 442.4c-7.2-2.4-10.4-25.6-10.4-74.4 0-56.8 2.4-71.2 12.8-75.2 20-8 27.2 1.6 27.2 37.6v33.6l22.4-33.6c14.4-24 27.2-34.4 40-34.4 16.8 0 17.6 2.4 17.6 71.2 0 41.6-3.2 74.4-8 76.8-13.6 8.8-31.2-11.2-33.6-38.4l-2.4-24.8-22.4 33.6c-21.6 33.6-24.8 36-43.2 28zM266.4 246.4c-15.2-19.2-52-127.2-47.2-138.4 6.4-17.6 29.6-14.4 34.4 4 5.6 22.4 40 20.8 58.4-1.6 12-15.2 16.8-16.8 25.6-8 8 8 7.2 20-8 64-28.8 81.6-45.6 102.4-63.2 80zM401.6 247.2c-56-16.8-66.4-104.8-15.2-135.2 14.4-8.8 32-16 39.2-16 20.8 0 52.8 16.8 58.4 30.4 7.2 20-8.8 29.6-32.8 18.4-28-12-49.6-4.8-56 20-8 32 16 52 53.6 46.4 28-4.8 31.2-3.2 31.2 11.2 0 11.2-8 19.2-24.8 24.8-14.4 4.8-25.6 8.8-26.4 8-0.8 0-12.8-4-27.2-8z" />
<glyph unicode="&#xe912;" glyph-name="quote" d="M436 947.2c-119.2-19.2-227.2-69.6-306.4-143.2-46.4-43.2-64-67.2-91.2-122.4l-34.4-68v-104.8c0-104 0-105.6 28.8-164.8 70.4-147.2 223.2-248 411.2-272 35.2-4.8 85.6-5.6 112.8-3.2l49.6 5.6 88.8-65.6c120.8-89.6 120.8-90.4 133.6 75.2l5.6 72 47.2 43.2c61.6 56.8 106.4 125.6 127.2 194.4 13.6 44.8 16.8 70.4 13.6 137.6-2.4 78.4-4.8 86.4-36.8 151.2-27.2 54.4-44.8 79.2-91.2 121.6-62.4 57.6-149.6 105.6-234.4 127.2-49.6 13.6-181.6 22.4-224 16zM644 876c128-32.8 241.6-120 292.8-224 25.6-52.8 27.2-60 27.2-144 0-83.2-1.6-91.2-25.6-140.8-25.6-52-76.8-112.8-128-151.2-25.6-19.2-26.4-23.2-35.2-100-4.8-44-9.6-81.6-11.2-82.4-1.6-1.6-31.2 18.4-66.4 44.8l-63.2 48.8-99.2-0.8c-111.2-1.6-168.8 10.4-251.2 51.2-107.2 52-189.6 141.6-216.8 236.8-20.8 69.6-12.8 168 18.4 233.6 88 186.4 332.8 286.4 558.4 228zM348.8 686.4c-117.6-133.6-122.4-300.8-8.8-326.4 63.2-14.4 122.4 26.4 129.6 90.4 7.2 64.8-39.2 117.6-104.8 117.6h-30.4l13.6 22.4c8 12 30.4 40 49.6 63.2 39.2 46.4 42.4 68.8 9.6 72.8-16.8 1.6-28.8-6.4-58.4-40zM644.8 686.4c-91.2-103.2-118.4-229.6-64-293.6 58.4-69.6 175.2-32.8 184.8 57.6 7.2 64-39.2 117.6-104 117.6-27.2 0-29.6 1.6-21.6 16 4.8 8.8 26.4 37.6 48.8 64 43.2 52.8 47.2 74.4 14.4 78.4-16.8 1.6-28.8-6.4-58.4-40z" />
<glyph unicode="&#xe913;" glyph-name="bullet-form" d="M57.6 944c-38.4-24-57.6-60-57.6-112 0-80 48-128 128-128s128 48 128 128c0 52-19.2 88-57.6 112-36 21.6-104.8 21.6-140.8 0zM167.2 900.8c53.6-28 52-114.4-3.2-139.2-40.8-18.4-85.6-5.6-104.8 31.2-37.6 72.8 35.2 145.6 108 108zM352.8 939.2c-14.4-18.4-16.8-32.8-16.8-107.2s2.4-88.8 16.8-107.2l16-20.8h312c377.6 0 343.2-12.8 343.2 128s34.4 128-343.2 128h-312l-16-20.8zM972 832v-76l-287.2-2.4c-224.8-1.6-288.8 0.8-294.4 8-7.2 12-8.8 119.2-1.6 137.6 4.8 12 36 12.8 294.4 11.2l288.8-2.4v-76zM57.6 560c-14.4-8.8-32.8-27.2-41.6-41.6-21.6-36-21.6-104.8 0-140.8 24-38.4 60-57.6 112-57.6 80 0 128 48 128 128 0 52-19.2 88-57.6 112-36 21.6-104.8 21.6-140.8 0zM167.2 516.8c37.6-20 50.4-66.4 29.6-108-28-52.8-109.6-52.8-137.6 0-37.6 72.8 35.2 145.6 108 108zM352.8 555.2c-14.4-18.4-16.8-32.8-16.8-107.2s2.4-88.8 16.8-107.2l16-20.8h312c377.6 0 343.2-12.8 343.2 128s34.4 128-343.2 128h-312l-16-20.8zM972 448v-76l-287.2-2.4c-224.8-1.6-288.8 0.8-294.4 8-7.2 12-8.8 119.2-1.6 137.6 4.8 12 36 12.8 294.4 11.2l288.8-2.4v-76zM57.6 176c-14.4-8.8-32.8-27.2-41.6-41.6-21.6-36-21.6-104.8 0-140.8 24-38.4 60-57.6 112-57.6 80 0 128 48 128 128 0 52-19.2 88-57.6 112-36 21.6-104.8 21.6-140.8 0zM167.2 132.8c53.6-28 52-114.4-3.2-139.2-40.8-18.4-85.6-5.6-104.8 31.2-37.6 72.8 35.2 145.6 108 108zM352.8 171.2c-14.4-18.4-16.8-32.8-16.8-107.2s2.4-88.8 16.8-107.2l16-20.8h312c377.6 0 343.2-12.8 343.2 128s34.4 128-343.2 128h-312l-16-20.8zM972 64v-76l-287.2-2.4c-224.8-1.6-288.8 0.8-294.4 8-7.2 12-8.8 119.2-1.6 137.6 4.8 12 36 12.8 294.4 11.2l288.8-2.4v-76z" />
<glyph unicode="&#xe914;" glyph-name="contact-mail" d="M152 866.4c-45.6-7.2-56.8-12-84-36-52-45.6-64-78.4-64-178.4 0.8-77.6 3.2-96 24.8-157.6 36-100 89.6-182.4 178.4-271.2 89.6-88.8 171.2-142.4 271.2-177.6 60-21.6 80.8-24.8 153.6-24.8 72-0.8 89.6 1.6 121.6 17.6 47.2 23.2 84 64.8 91.2 101.6l4.8 28h54.4c61.6 0 100.8 11.2 112 32 4.8 8.8 8 123.2 8 282.4v267.2l-18.4 16.8c-18.4 17.6-20 17.6-371.2 17.6h-352.8l-9.6 24c-20.8 50.4-57.6 68.8-120 58.4zM143.2 786.4c5.6-16.8 29.6-65.6 53.6-109.6l44-79.2-16-16.8c-22.4-24-21.6-36 11.2-100.8 49.6-98.4 168-208 264.8-244.8 35.2-13.6 36.8-13.6 59.2 3.2l23.2 17.6 78.4-43.2c43.2-24 92-48 108.8-53.6 16-5.6 29.6-14.4 29.6-20 0-16.8-61.6-65.6-93.6-74.4-165.6-46.4-426.4 92.8-568 303.2-89.6 132.8-121.6 289.6-79.2 380.8 17.6 38.4 45.6 67.2 64.8 67.2 4.8 0 13.6-13.6 19.2-29.6zM800 580c-90.4-90.4-170.4-166.4-179.2-168.8-20-6.4-269.6 240-297.6 295.2l-19.2 37.6h660l-164-164zM992 486.4v-226.4l-228 228 112 112c61.6 61.6 112.8 112 113.6 112 1.6 0 2.4-101.6 2.4-225.6zM408 436l-52-52.8-24.8 29.6c-29.6 34.4-72.8 105.6-76.8 124-1.6 8 13.6 26.4 37.6 45.6l40 32 128-126.4-52-52zM612 368c24.8 0 36.8 7.2 75.2 44l45.6 43.2 117.6-117.6c64.8-65.6 116-120.8 112.8-124s-28.8-5.6-56.8-5.6c-37.6 0-50.4 3.2-50.4 11.2 0 24-37.6 56-112.8 92.8-107.2 54.4-130.4 54.4-176 0-18.4-21.6-39.2-40-45.6-40-11.2 0-84 42.4-117.6 68-14.4 12-13.6 14.4 36 64l51.2 51.2 45.6-43.2c38.4-36.8 50.4-44 75.2-44z" />
<glyph unicode="&#xe915;" glyph-name="footer" d="M47.2 946.4c-48.8-29.6-47.2-15.2-47.2-498.4 0-394.4 1.6-444 12.8-464 29.6-49.6 14.4-48 499.2-48 394.4 0 444 1.6 464 12.8 49.6 29.6 48 14.4 48 499.2s1.6 469.6-48 499.2c-20 11.2-69.6 12.8-465.6 12.8-394.4-0.8-444.8-1.6-463.2-13.6zM956 892l20-19.2v-849.6l-20-19.2-19.2-20h-849.6l-19.2 20-20 19.2v849.6l20 19.2 19.2 20h849.6l19.2-20zM148.8 351.2l-20.8-16v-120c0-108.8 1.6-120.8 16-135.2 15.2-15.2 26.4-16 368-16s352.8 0.8 368 16c14.4 14.4 16 26.4 16 135.2v120l-20.8 16c-20.8 16.8-29.6 16.8-363.2 16.8s-342.4 0-363.2-16.8zM838.4 313.6c7.2-5.6 9.6-31.2 8-102.4l-2.4-95.2h-664l-2.4 95.2c-1.6 71.2 0.8 96.8 8 102.4 5.6 3.2 152.8 6.4 326.4 6.4s320.8-3.2 326.4-6.4z" />
<glyph unicode="&#xe916;" glyph-name="gallery" d="M42.4 876c-13.6-5.6-28.8-17.6-33.6-27.2-5.6-10.4-8.8-120-8.8-328v-312l38.4-44.8h947.2l38.4 44.8v312c0 208.8-3.2 317.6-8.8 328.8-20 37.6-33.6 38.4-504.8 38.4-357.6-0.8-447.2-2.4-468-12zM968 824c15.2-15.2 16-26.4 16-298.4 0-242.4-1.6-284.8-12.8-300l-12-17.6h-894.4l-12 17.6c-11.2 15.2-12.8 57.6-12.8 300 0 272 0.8 283.2 16 298.4 16 16 26.4 16 456 16s440 0 456-16zM384 738.4c-60-30.4-72-108-24-156 19.2-18.4 29.6-22.4 64-22.4 36.8 0 44.8 3.2 68.8 27.2 21.6 21.6 27.2 33.6 27.2 60 0 58.4-25.6 90.4-80.8 100.8-18.4 3.2-36 0-55.2-9.6zM503.2 532l-57.6-68-24.8 28.8c-19.2 22.4-28.8 28-40.8 24-14.4-5.6-150.4-156-166.4-185.6-4-7.2-3.2-16.8 2.4-24 15.2-17.6 577.6-16.8 592 0.8 12.8 15.2 11.2 18.4-115.2 170.4-67.2 80.8-106.4 121.6-116.8 121.6-9.6 0-36.8-25.6-72.8-68zM659.2 440l75.2-92-79.2-2.4c-43.2-0.8-115.2-0.8-158.4 0l-79.2 2.4 76.8 94.4c42.4 51.2 80 92.8 83.2 92 3.2-1.6 40-44 81.6-94.4zM312 112c-20.8-20.8-20.8-64.8 0-84 36.8-33.6 96-8 96 40.8 0 51.2-60.8 78.4-96 43.2zM472 112c-20.8-20.8-20.8-64.8 0-84 36.8-33.6 96-8 96 41.6 0 33.6-24 58.4-56 58.4-13.6 0-31.2-7.2-40-16zM633.6 112c-37.6-35.2-12.8-98.4 38.4-98.4 32.8 0 56 22.4 56 56 0 52-56.8 76.8-94.4 42.4z" />
<glyph unicode="&#xe917;" glyph-name="header" d="M47.2 946.4c-48.8-29.6-47.2-15.2-47.2-498.4 0-394.4 1.6-444 12.8-464 29.6-49.6 14.4-48 499.2-48 394.4 0 444 1.6 464 12.8 49.6 29.6 48 14.4 48 499.2s1.6 469.6-48 499.2c-20 11.2-69.6 12.8-465.6 12.8-394.4-0.8-444.8-1.6-463.2-13.6zM956 892l20-19.2v-849.6l-20-19.2-19.2-20h-849.6l-19.2 20-20 19.2v849.6l20 19.2 19.2 20h849.6l19.2-20zM144 816c-14.4-14.4-16-26.4-16-135.2v-120l21.6-16.8c20.8-16 25.6-16.8 367.2-14.4 327.2 2.4 346.4 3.2 362.4 17.6s16.8 23.2 16.8 134.4c0 108-1.6 120-16 134.4-15.2 15.2-26.4 16-368 16s-352.8-0.8-368-16zM846.4 684.8c1.6-71.2-0.8-96.8-8-102.4-12-7.2-630.4-8.8-649.6-1.6-10.4 4-12.8 20.8-12.8 98.4 0 52 2.4 96.8 5.6 99.2 3.2 3.2 152.8 4.8 333.6 4l328.8-2.4 2.4-95.2z" />
<glyph unicode="&#xe918;" glyph-name="countdown" d="M323.2 860.8c-40-17.6-92-69.6-109.6-108-23.2-53.6-21.6-124 4.8-177.6 22.4-45.6 20.8-56-12.8-92.8-9.6-10.4-13.6-23.2-10.4-31.2 4-11.2 12-12.8 53.6-8 27.2 3.2 57.6 8.8 68 12.8 24.8 9.6 115.2 0.8 115.2-11.2 0-5.6-22.4-8.8-62.4-8.8-68.8-0.8-95.2-11.2-138.4-53.6-59.2-59.2-74.4-156.8-36-233.6l20.8-40.8-24-34.4c-13.6-18.4-24-37.6-24-41.6 0-10.4 77.6-10.4 112 0.8 15.2 4.8 53.6 8 85.6 7.2 84-1.6 136 24.8 180 89.6 12 17.6 24 46.4 26.4 64.8l5.6 33.6 72.8-0.8c40.8-0.8 92.8-5.6 116.8-10.4 58.4-12 80.8-11.2 86.4 4 2.4 6.4-2.4 20-11.2 29.6-33.6 36-35.2 48-13.6 89.6 15.2 30.4 19.2 51.2 19.2 95.2 0 68-16.8 108-60.8 150.4-38.4 36.8-78.4 53.6-129.6 56l-40 1.6-4 38.4c-9.6 78.4-56 145.6-121.6 175.2-38.4 17.6-132 20-168.8 4zM477.6 820.8c78.4-40 119.2-140.8 87.2-216-32-76-98.4-114.4-186.4-106.4-29.6 3.2-56.8 2.4-61.6-1.6s-20-9.6-34.4-12l-24.8-5.6 11.2 32.8c10.4 30.4 10.4 35.2-3.2 54.4-51.2 72.8-41.6 161.6 23.2 223.2 51.2 48 130.4 61.6 188.8 31.2zM730.4 581.6c45.6-26.4 76-76 83.2-132.8 4-35.2 0.8-48-20.8-92-24.8-50.4-24.8-52.8-13.6-80.8l12.8-29.6-26.4 5.6c-13.6 3.2-29.6 8.8-34.4 12.8s-32 4.8-60.8 1.6c-62.4-5.6-100.8 5.6-139.2 40-38.4 33.6-59.2 76.8-59.2 124.8 0 33.6 2.4 40 18.4 44 29.6 7.2 83.2 58.4 102.4 97.6l17.6 36.8 41.6-3.2c25.6-2.4 56-12 78.4-24.8zM415.2 400.8c14.4-4 23.2-15.2 31.2-40.8 8-23.2 27.2-50.4 55.2-77.6 40-39.2 42.4-44.8 37.6-70.4-8.8-50.4-45.6-96-94.4-120-39.2-19.2-51.2-21.6-91.2-16.8-30.4 3.2-58.4 0.8-84.8-7.2-36-11.2-38.4-11.2-32.8 2.4 14.4 32.8 13.6 57.6-3.2 84.8-74.4 120 47.2 284 182.4 245.6zM356 776c-8.8-14.4 4.8-24 32.8-24h28.8l-16.8-27.2c-23.2-36.8-20.8-44.8 11.2-44.8 22.4 0 28.8-3.2 32.8-19.2 4.8-20-8-52.8-20.8-52.8-3.2 0-12-1.6-18.4-4.8-6.4-2.4-22.4 5.6-36.8 16.8-40.8 35.2-68.8 9.6-29.6-27.2 25.6-24 75.2-30.4 107.2-13.6 42.4 22.4 51.2 95.2 13.6 123.2-18.4 13.6-18.4 13.6-3.2 42.4 8 16 12 31.2 9.6 34.4-8 8-104.8 5.6-110.4-3.2zM617.6 532c-28-12-40.8-32-27.2-45.6 4.8-4.8 16-3.2 33.6 5.6 26.4 13.6 48 11.2 48-4.8 0-4.8-24-32-52.8-60-28.8-27.2-50.4-54.4-47.2-58.4 3.2-5.6 36-8.8 80.8-8.8 69.6 0 75.2 0.8 75.2 16 0 14.4-5.6 16-45.6 16-38.4 0-43.2 1.6-32 10.4 49.6 36.8 68.8 105.6 36 128.8-21.6 15.2-34.4 15.2-68.8 0.8zM357.6 342.4c-40.8-55.2-45.6-84.8-12.8-76 13.6 4 15.2-0.8 15.2-34.4 0-34.4-2.4-39.2-17.6-41.6-10.4-1.6-18.4-8-18.4-14.4 0-9.6 12-12 60-12s60 2.4 60 12c0 7.2-8.8 12.8-21.6 14.4l-21.6 2.4-2.4 84.8c-2.4 95.2-9.6 106.4-40.8 64.8z" />
<glyph unicode="&#xe919;" glyph-name="configuration" d="M464 892c0-41.6-5.6-44-32-16-24.8 26.4-40 25.6-70.4-6.4-31.2-32-32-44.8-5.6-69.6 28-26.4 25.6-32-16-32h-36v-96h36c73.6 0 32.8-32.8-84-68-48.8-14.4-92-29.6-96-32.8-14.4-16-64.8-143.2-62.4-158.4 1.6-11.2 11.2-18.4 32-23.2l30.4-7.2 1.6-160 2.4-160.8 164-46.4c90.4-26.4 172.8-47.2 184-47.2s93.6 20.8 184 47.2l164 46.4 2.4 160.8 1.6 160 30.4 7.2c20.8 4.8 30.4 12 32 23.2 2.4 17.6-49.6 144.8-65.6 160-4.8 4.8-46.4 19.2-92 32-112.8 31.2-159.2 67.2-84.8 67.2h36v96h-36c-41.6 0-44 5.6-16 32 26.4 24.8 25.6 40-6.4 70.4-32 31.2-44.8 32-69.6 5.6-26.4-28-32-25.6-32 16v36h-96v-36zM528 860.8c0-26.4 3.2-36 14.4-39.2 7.2-1.6 19.2-6.4 26.4-8.8 8-4 22.4 1.6 36.8 14.4 31.2 26.4 40 17.6 13.6-13.6-12.8-14.4-18.4-28.8-14.4-36.8 2.4-7.2 7.2-19.2 8.8-26.4 3.2-11.2 12.8-14.4 39.2-14.4 29.6 0 35.2-2.4 35.2-16s-5.6-16-35.2-16c-26.4 0-36-3.2-39.2-13.6-1.6-8-6.4-20-8.8-27.2-4-8 1.6-22.4 14.4-36.8 26.4-31.2 17.6-40-13.6-13.6-14.4 12.8-28.8 18.4-36.8 14.4-7.2-2.4-19.2-7.2-26.4-8.8-11.2-3.2-14.4-12.8-14.4-39.2 0-29.6-2.4-35.2-16-35.2s-16 5.6-16 35.2c0 26.4-3.2 36-13.6 39.2-8 1.6-20 6.4-27.2 8.8-8 4-22.4-1.6-36.8-14.4-31.2-26.4-40-17.6-13.6 13.6 12.8 14.4 18.4 28.8 14.4 36.8-2.4 7.2-7.2 19.2-8.8 27.2-3.2 10.4-12.8 13.6-39.2 13.6-29.6 0-35.2 2.4-35.2 16s5.6 16 35.2 16c26.4 0 36 3.2 39.2 14.4 1.6 7.2 6.4 19.2 8.8 26.4 4 8-1.6 22.4-14.4 36.8-26.4 31.2-17.6 40 13.6 13.6 14.4-12.8 28.8-18.4 36.8-14.4 7.2 2.4 19.2 7.2 27.2 8.8 10.4 3.2 13.6 12.8 13.6 39.2 0 29.6 2.4 35.2 16 35.2s16-5.6 16-35.2zM368 564c10.4-11.2 24.8-20 32-20s21.6 8.8 32 20c26.4 28 32 25.6 32-16v-36h96v36c0 41.6 5.6 44 32 16 24-25.6 37.6-24.8 64.8 0.8 21.6 20.8 23.2 20.8 62.4 10.4 22.4-5.6 40.8-12 40.8-14.4s-56-20.8-124-40l-124-35.2-124 35.2c-68 19.2-124 37.6-124 40 0 4.8 51.2 20.8 72.8 22.4 6.4 0 20.8-8 31.2-19.2zM340 492c75.2-21.6 137.6-40 139.2-40.8 6.4-5.6-43.2-107.2-51.2-104.8-4 2.4-68.8 20.8-144 41.6-74.4 21.6-137.6 40-139.2 40.8-6.4 5.6 43.2 107.2 51.2 104.8 4-2.4 69.6-20.8 144-41.6zM859.2 484c12.8-28.8 21.6-53.6 20-55.2-1.6-0.8-64-19.2-139.2-40.8-74.4-20.8-140-39.2-144-41.6-8-2.4-57.6 99.2-51.2 104.8 2.4 1.6 275.2 81.6 287.2 84 2.4 0.8 14.4-22.4 27.2-51.2zM316 336c61.6-17.6 120-32 130.4-32 13.6 0 21.6 8 33.6 34.4l15.2 33.6v-180.8l0.8-180.8-121.6 34.4c-67.2 20-136 39.2-152 44l-30.4 8v135.2c0 75.2 2.4 136 6.4 136 3.2 0 56-14.4 117.6-32zM577.6 304c10.4 0 68.8 14.4 130.4 32s114.4 32 117.6 32c4 0 6.4-60.8 6.4-136v-135.2l-29.6-8c-16.8-4.8-85.6-24-152-44l-122.4-34.4 0.8 180.8v180.8l15.2-33.6c12-26.4 20-34.4 33.6-34.4zM452.8 779.2c-16.8-16.8-20.8-28.8-20.8-59.2 0-52.8 27.2-80 80-80 30.4 0 42.4 4 59.2 20.8s20.8 28.8 20.8 59.2c0 52.8-27.2 80-80 80-30.4 0-42.4-4-59.2-20.8zM224 168.8v-56l46.4-13.6c24.8-7.2 60.8-15.2 80-17.6l34.4-4-2.4 59.2-2.4 58.4-56 14.4c-30.4 7.2-65.6 14.4-77.6 14.4-22.4 0-22.4 0-22.4-55.2z" />
<glyph unicode="&#xe91a;" glyph-name="heading" d="M380 912.8c-164-48-293.6-180-336-342.4-16-60-15.2-183.2 0.8-244.8 43.2-166.4 178.4-301.6 344.8-344.8 63.2-16.8 182.4-16 245.6 0 164 42.4 301.6 180 344 344.8 16.8 62.4 16.8 182.4 0 244.8-20.8 82.4-64 156-126.4 218.4s-136 105.6-218.4 126.4c-65.6 16.8-192 16-254.4-2.4zM658.4 832.8c98.4-38.4 199.2-138.4 238.4-238.4 16-40 19.2-60 19.2-146.4s-3.2-106.4-19.2-146.4c-39.2-100-140-200-238.4-238.4-64-24.8-189.6-30.4-255.2-11.2-131.2 37.6-244 146.4-283.2 273.6-21.6 70.4-21.6 174.4 0 244.8 38.4 123.2 144 228.8 270.4 270.4 65.6 21.6 202.4 17.6 268-8zM273.6 662.4c-12-12-12-40.8 0-52.8 5.6-5.6 20-9.6 32-9.6h22.4v-304h-22.4c-26.4 0-41.6-12.8-41.6-36 0-30.4 15.2-36 96-36s96 5.6 96 36c0 21.6-14.4 36-37.6 36-17.6 0-18.4 2.4-18.4 60v60h224v-60c0-57.6-0.8-60-18.4-60-23.2 0-37.6-14.4-37.6-36 0-30.4 15.2-36 96-36s96 5.6 96 36c0 23.2-15.2 36-41.6 36h-22.4v304h22.4c26.4 0 41.6 12.8 41.6 36 0 30.4-15.2 36-96 36s-96-5.6-96-36c0-21.6 14.4-36 37.6-36 17.6 0 18.4-2.4 18.4-60v-60h-224v60c0 57.6 0.8 60 18.4 60 23.2 0 37.6 14.4 37.6 36 0 9.6-4 20.8-9.6 26.4-12.8 12.8-160 12.8-172.8 0z" />
<glyph unicode="&#xe91b;" glyph-name="brand-image" d="M449.6 920c-48.8-31.2-52-32-121.6-32h-71.2l-32.8-59.2c-31.2-56-36.8-61.6-92.8-92.8l-59.2-32.8v-47.2c0-45.6-0.8-48-20-48-11.2 0-27.2-7.2-36-16-14.4-14.4-16-26.4-16-144s1.6-129.6 16-144c8.8-8.8 24.8-16 36-16 19.2 0 20-2.4 20-48v-47.2l59.2-32.8c56-31.2 61.6-36.8 92.8-92.8l32.8-59.2h71.2c69.6 0 72.8-0.8 121.6-32 28-17.6 56-32 62.4-32s34.4 14.4 62.4 32c48.8 31.2 52 32 121.6 32h71.2l32.8 59.2c31.2 56 36.8 61.6 92.8 92.8l59.2 32.8v47.2c0 45.6 0.8 48 20 48 11.2 0 27.2 7.2 36 16 14.4 14.4 16 26.4 16 144s-1.6 129.6-16 144c-8.8 8.8-24.8 16-36 16-19.2 0-20 2.4-20 48v47.2l-59.2 32.8c-56 31.2-61.6 36.8-92.8 92.8l-32.8 59.2h-71.2c-69.6 0-72.8 0.8-121.6 32-28 17.6-56 32-62.4 32s-34.4-14.4-62.4-32zM568.8 888c51.2-30.4 57.6-32 118.4-32h64l29.6-55.2c26.4-49.6 34.4-57.6 84-84l55.2-29.6v-79.2l-33.6 0.8c-32.8 0-36 2.4-65.6 48-94.4 147.2-292.8 205.6-457.6 135.2-47.2-20.8-48-20.8-36-35.2 8-9.6 16-8.8 55.2 9.6 40 19.2 55.2 21.6 129.6 21.6 77.6 0 88-1.6 138.4-25.6 56-26.4 127.2-87.2 152-129.6l14.4-24.8h-609.6l9.6 17.6c5.6 9.6 27.2 36.8 49.6 60 26.4 28 37.6 46.4 34.4 54.4-4 11.2-8 11.2-29.6-4.8-24.8-17.6-95.2-106.4-95.2-120 0-4-16-7.2-36-7.2h-36v79.2l55.2 29.6c49.6 26.4 57.6 34.4 84 84l29.6 55.2h65.6c62.4 0 68 1.6 117.6 32 28.8 17.6 53.6 32 55.2 32 2.4 0 28-14.4 57.6-32zM988 448v-124l-213.6-2.4c-208-1.6-214.4-2.4-214.4-17.6s5.6-16 128.8-16h128l-14.4-24.8c-24.8-42.4-96-103.2-152-129.6-50.4-24-60.8-25.6-138.4-25.6s-88 1.6-138.4 25.6c-56 26.4-127.2 87.2-152 129.6l-14.4 24.8h128c123.2 0 128.8 0.8 128.8 16s-6.4 16-213.6 17.6l-214.4 2.4-2.4 116c-0.8 63.2 0 120 1.6 125.6 3.2 8.8 94.4 10.4 478.4 8.8l474.4-2.4v-124zM203.2 239.2c75.2-117.6 226.4-184.8 364-160.8 108.8 18.4 199.2 75.2 253.6 160.8 29.6 45.6 32.8 48 65.6 48l33.6 0.8v-79.2l-55.2-30.4c-50.4-27.2-58.4-35.2-84.8-84l-28.8-54.4h-64c-60.8 0-67.2-1.6-120-32.8l-55.2-32.8-54.4 32.8c-52 31.2-57.6 32.8-119.2 32.8h-65.6l-29.6 55.2c-26.4 49.6-34.4 57.6-84 84l-55.2 29.6v79.2l34.4-0.8c32 0 35.2-2.4 64.8-48zM605.6 730.4c-11.2-10.4-4.8-26.4 10.4-26.4 10.4 0 16 5.6 16 16 0 15.2-16 21.6-26.4 10.4zM664 688c0-12 4-16 14.4-14.4 7.2 1.6 13.6 8 13.6 14.4s-6.4 12.8-13.6 14.4c-10.4 1.6-14.4-2.4-14.4-14.4zM112 448v-72h42.4c23.2 0 46.4 4 52 9.6 11.2 11.2 12.8 59.2 2.4 65.6-4 2.4-5.6 12-3.2 20s0 22.4-4.8 32c-8 13.6-16.8 16.8-48.8 16.8h-40v-72zM172 480c0-17.6-23.2-14.4-26.4 2.4-2.4 11.2 0.8 14.4 12 12 8-1.6 14.4-8 14.4-14.4zM182.4 430.4c12-12-2.4-30.4-23.2-30.4-11.2 0-15.2 5.6-15.2 20 0 21.6 20.8 28 38.4 10.4zM280 448c0-58.4 2.4-72 12-72 7.2 0 12 7.2 12 20 0 25.6 4.8 25.6 29.6-4 16-19.2 22.4-22.4 31.2-15.2s7.2 12.8-7.2 32.8c-12.8 18.4-15.2 25.6-7.2 28 20 7.2 27.2 42.4 13.6 63.2-9.6 15.2-19.2 19.2-48 19.2h-36v-72zM335.2 488.8c14.4-8.8 4-24.8-16-24.8-14.4 0-20.8 16-9.6 26.4 6.4 7.2 12 7.2 25.6-1.6zM456.8 451.2c-19.2-54.4-23.2-71.2-15.2-76.8 6.4-4 14.4-0.8 21.6 9.6 14.4 21.6 60 21.6 69.6 0 4.8-11.2 10.4-13.6 18.4-8.8 17.6 11.2-30.4 140-52.8 143.2-13.6 2.4-20-8.8-41.6-67.2zM512 438.4c0-4-5.6-6.4-12-6.4-12 0-16 16.8-6.4 26.4 5.6 5.6 18.4-8.8 18.4-20zM624 448c0-66.4 0.8-72 16-72 13.6 0 16 5.6 16 42.4l0.8 41.6 25.6-41.6c14.4-24 31.2-42.4 40-42.4 12 0 13.6 8.8 13.6 72 0 57.6-2.4 72-11.2 72s-12.8-12-14.4-41.6l-2.4-42.4-27.2 42.4c-16.8 26.4-32 41.6-41.6 41.6-13.6 0-15.2-6.4-15.2-72zM800 448v-72h31.2c45.6 0 76.8 28 76.8 69.6 0 17.6-6.4 41.6-14.4 52.8-12 18.4-19.2 21.6-53.6 21.6h-40v-72zM867.2 483.2c24-23.2 10.4-75.2-19.2-75.2-14.4 0-16 5.6-16 44 0 47.2 10.4 56 35.2 31.2zM496 304c0-10.4 5.6-16 16-16s16 5.6 16 16c0 10.4-5.6 16-16 16s-16-5.6-16-16z" />
<glyph unicode="&#xe91c;" glyph-name="tabs" d="M0 476v-364l23.2-25.6 23.2-26.4h931.2l23.2 26.4 23.2 25.6v728h-1024v-364zM288 744v-64h704v-567.2l-17.6-12c-16-11.2-72.8-12.8-462.4-12.8s-446.4 1.6-462.4 12.8l-17.6 12v695.2h256v-64zM464 756v-52.8l-140 4.8-2.4 50.4-2.4 49.6h144.8v-52zM640 756v-52h-144v104h144v-52zM816 756v-52h-144v104h144v-52zM992 756v-52h-144v104h144v-52zM88 756c0-6.4 5.6-12 12-12s12 5.6 12 12c0 6.4-5.6 12-12 12s-12-5.6-12-12zM144 756c0-6.4 7.2-12 16-12s16 5.6 16 12c0 6.4-7.2 12-16 12s-16-5.6-16-12zM208 756c0-6.4 5.6-12 12-12s12 5.6 12 12c0 6.4-5.6 12-12 12s-12-5.6-12-12zM80 384v-216h432v432h-432v-216zM214.4 535.2c3.2-41.6-24-72.8-67.2-74.4l-31.2-0.8-4.8 108.8 100.8-4.8 2.4-28.8zM480 456c0-61.6-1.6-112-3.2-112s-21.6 33.6-44.8 74.4c-23.2 40-46.4 78.4-50.4 84-5.6 7.2-20.8-12.8-55.2-72-25.6-44.8-48-83.2-49.6-84.8-2.4-1.6-13.6 12-24.8 29.6l-21.6 32.8-56-82.4c-31.2-44.8-57.6-83.2-59.2-84.8s-3.2 39.2-3.2 92v95.2h30.4c58.4 0 109.6 54.4 102.4 110.4l-3.2 29.6h238.4v-112zM430.4 361.6c41.6-72.8 49.6-92.8 49.6-124v-37.6h-109.6l-37.6 56.8c-20.8 31.2-36.8 59.2-35.2 61.6 9.6 22.4 74.4 129.6 77.6 129.6s27.2-39.2 55.2-86.4zM283.2 276l52-76h-208.8l14.4 22.4c45.6 71.2 85.6 129.6 88 129.6 1.6 0 25.6-34.4 54.4-76zM408 528c0-10.4 5.6-16 16-16s16 5.6 16 16c0 10.4-5.6 16-16 16s-16-5.6-16-16zM288 511.2c0-11.2 4-15.2 13.6-13.6 20.8 4 23.2 30.4 3.2 30.4-12 0-16.8-4.8-16.8-16.8zM257.6 442.4c4-20.8 30.4-23.2 30.4-3.2 0 12-4.8 16.8-16.8 16.8-11.2 0-15.2-4-13.6-13.6zM137.6 378.4c4-20.8 30.4-23.2 30.4-3.2 0 12-4.8 16.8-16.8 16.8-11.2 0-15.2-4-13.6-13.6zM553.6 490.4c1.6-10.4 10.4-14.4 30.4-14.4s28.8 4 30.4 14.4c2.4 11.2-3.2 13.6-30.4 13.6s-32.8-2.4-30.4-13.6zM641.6 490.4c2.4-12.8 16-14.4 146.4-14.4s144 1.6 146.4 14.4c2.4 12.8-8.8 13.6-146.4 13.6s-148.8-0.8-146.4-13.6zM557.6 434.4c-3.2-2.4-5.6-9.6-5.6-16 0-8 14.4-10.4 56-10.4 50.4 0 56 1.6 56 16s-5.6 16-50.4 16c-28 0-53.6-2.4-56-5.6zM696 424.8c0-12 4.8-16.8 16.8-16.8 11.2 0 15.2 4 13.6 13.6-4 20.8-30.4 23.2-30.4 3.2zM757.6 435.2c-3.2-3.2-5.6-10.4-5.6-16.8 0-8 16-10.4 64.8-10.4 56.8 0 64 1.6 61.6 14.4-2.4 11.2-12.8 14.4-59.2 16-30.4 0.8-58.4 0-61.6-3.2zM909.6 435.2c-11.2-12-4.8-27.2 11.2-27.2 11.2 0 15.2 4 13.6 13.6-2.4 14.4-16 21.6-24.8 13.6zM552 352c0-15.2 5.6-16 132-16s132 0.8 132 16c0 15.2-5.6 16-132 16s-132-0.8-132-16zM844 360c-9.6-16 5.6-24 48.8-24 37.6 0 43.2 1.6 43.2 16s-5.6 16-43.2 16c-24 0-46.4-3.2-48.8-8zM553.6 282.4c4-20.8 30.4-23.2 30.4-3.2 0 12-4.8 16.8-16.8 16.8-11.2 0-15.2-4-13.6-13.6zM616 279.2c0-20 26.4-17.6 30.4 3.2 1.6 9.6-2.4 13.6-13.6 13.6-12 0-16.8-4.8-16.8-16.8zM673.6 282.4c4-20.8 30.4-23.2 30.4-3.2 0 12-4.8 16.8-16.8 16.8-11.2 0-15.2-4-13.6-13.6zM736 279.2c0-20 26.4-17.6 30.4 3.2 1.6 9.6-2.4 13.6-13.6 13.6-12 0-16.8-4.8-16.8-16.8z" />
<glyph unicode="&#xe91d;" glyph-name="service" d="M413.6 946.4c-6.4-8-14.4-32-17.6-54.4-8-66.4-11.2-72.8-32-82.4-11.2-5.6-21.6-9.6-23.2-9.6s-24 16-49.6 36c-24.8 20-53.6 36-63.2 36-24 0-66.4-44.8-53.6-57.6 7.2-7.2 13.6-5.6 28 8 10.4 9.6 22.4 17.6 26.4 17.6 4.8 0 29.6-16 54.4-36 25.6-20 49.6-36 52.8-36 12.8 0 61.6 23.2 69.6 33.6 4.8 5.6 11.2 28.8 14.4 50.4 10.4 83.2 2.4 76 92 76s81.6 7.2 92-76c3.2-21.6 9.6-44.8 14.4-50.4 8-10.4 56.8-33.6 69.6-33.6 3.2 0 27.2 16 52.8 36 24.8 20 49.6 36 55.2 36 11.2 0 108-97.6 108-108.8 0-4.8-16-29.6-36-54.4-20-25.6-36-49.6-36-52.8 0-12.8 23.2-61.6 33.6-69.6 5.6-4.8 28.8-11.2 50.4-14.4 83.2-10.4 76-2.4 76-92s7.2-81.6-76-92c-21.6-3.2-44.8-9.6-50.4-14.4-10.4-8-33.6-56.8-33.6-69.6 0-3.2 16-27.2 36-52.8 20-24.8 36-49.6 36-55.2 0-11.2-97.6-108-108.8-108-4.8 0-29.6 16-54.4 36-25.6 20-49.6 36-52.8 36-12.8 0-61.6-23.2-69.6-33.6-4.8-5.6-11.2-28-14.4-50.4-10.4-83.2-2.4-76-92-76s-81.6-7.2-92 76c-3.2 22.4-9.6 44.8-14.4 50.4-8 10.4-56.8 33.6-69.6 33.6-3.2 0-27.2-16-52.8-36-24.8-20-49.6-36-55.2-36-11.2 0-108 97.6-108 108.8 0 4.8 16 29.6 36 54.4 20 25.6 36 49.6 36 52.8 0 12.8-23.2 61.6-33.6 69.6-5.6 4.8-28 11.2-50.4 14.4-83.2 10.4-76 2.4-76 92s-7.2 81.6 76 92c22.4 3.2 44.8 9.6 50.4 14.4 10.4 8 33.6 56.8 33.6 69.6 0 3.2-16 27.2-36 52.8-20 24.8-36 49.6-36 54.4 0 4 8 16 17.6 26.4 13.6 14.4 15.2 20.8 8 28-12.8 12.8-57.6-29.6-57.6-53.6 0-9.6 16-38.4 36-63.2 20-25.6 36-48 36-49.6s-4-12-9.6-23.2c-9.6-20.8-16-24-82.4-32-63.2-8.8-68-16-68-116s4.8-107.2 68-116c66.4-8 72.8-11.2 82.4-32 5.6-11.2 9.6-21.6 9.6-23.2s-16-24-36-49.6c-20-24.8-36-53.6-36-62.4 0-22.4 118.4-140.8 140.8-140.8 8.8 0 37.6 16 62.4 36 25.6 20 48 36 49.6 36s12-4 23.2-9.6c20.8-9.6 24-16 32-82.4 8.8-63.2 16-68 116-68s107.2 4.8 116 68c8 66.4 11.2 72.8 32 82.4 11.2 5.6 21.6 9.6 23.2 9.6s24-16 49.6-36c24.8-20 53.6-36 62.4-36 22.4 0 140.8 118.4 140.8 140.8 0 8.8-16 37.6-36 62.4-20 25.6-36 48-36 49.6s4 12 9.6 23.2c9.6 20.8 16 24 82.4 32 63.2 8.8 68 16 68 116s-4.8 107.2-68 116c-66.4 8-72.8 11.2-82.4 32-5.6 11.2-9.6 21.6-9.6 23.2s16 24 36 49.6c20 24.8 36 53.6 36 62.4 0 22.4-118.4 140.8-140.8 140.8-8.8 0-37.6-16-62.4-36-25.6-20-48-36-49.6-36s-12 4-23.2 9.6c-20.8 9.6-24 16-32 82.4-8.8 63.2-16 68-116 68-71.2 0-87.2-2.4-98.4-13.6zM422.4 700c-75.2-27.2-137.6-92.8-164-168.8-17.6-52.8-12-148 13.6-199.2 24.8-50.4 73.6-99.2 124-124.8 33.6-16 51.2-19.2 116-19.2 88.8 0 133.6 16.8 188 72 55.2 54.4 72 99.2 72 188 0 64-3.2 82.4-19.2 114.4-17.6 36.8-36 53.6-46.4 42.4-2.4-2.4 5.6-27.2 17.6-54.4 42.4-93.6 26.4-193.6-42.4-264.8-28-29.6-79.2-61.6-97.6-61.6-4.8 0-8 25.6-8 67.2v66.4l35.2 35.2c44.8 45.6 60 89.6 46.4 140-16 60-62.4 108-92.8 96.8-9.6-4-12.8-16.8-12.8-56 0-44-2.4-53.6-20-69.6l-20-18.4-20 18.4c-17.6 16-20 25.6-20 69.6 0 56.8-10.4 68.8-45.6 49.6-27.2-14.4-48-45.6-59.2-89.6-14.4-51.2 0-95.2 45.6-140.8 28-27.2 35.2-40.8 35.2-61.6 0-19.2 4-27.2 12-27.2s12 8 12 24c0 23.2 0.8 24 40 24h40v-67.2c0-51.2-2.4-68-12-71.2-8.8-4-12 5.6-13.6 44.8-1.6 37.6-5.6 49.6-14.4 49.6s-12.8-12.8-16-49.6c-2.4-35.2-6.4-48-12.8-44-5.6 3.2-11.2 13.6-12 24-4 24-18.4 26.4-21.6 4s-9.6-22.4-48-3.2c-138.4 72-167.2 260.8-56 374.4 72 73.6 177.6 91.2 271.2 44.8 35.2-17.6 53.6-23.2 59.2-17.6 11.2 11.2-30.4 44-75.2 59.2-44 14.4-138.4 14.4-178.4 0zM448 544.8c0-44 1.6-48.8 28-72 16-13.6 30.4-24.8 32-24.8 2.4 0 18.4 12.8 36 28.8 29.6 27.2 32 32 32 72.8 0 50.4 9.6 52.8 38.4 10.4 48.8-72-10.4-176-100-176-79.2 0-133.6 63.2-119.2 140 5.6 27.2 32 68 45.6 68 4 0 7.2-21.6 7.2-47.2z" />
<glyph unicode="&#xe91e;" glyph-name="radio-button" d="M196 796.8c-116.8-52.8-117.6-216.8 0-269.6 82.4-37.6 180 8.8 204 97.6 10.4 39.2 4.8 72-20.8 116.8-32.8 56.8-120 83.2-183.2 55.2zM304.8 756c51.2-27.2 71.2-102.4 40-152.8-10.4-16.8-28.8-30.4-52-39.2-34.4-13.6-38.4-13.6-72.8-0.8-42.4 16.8-68 52.8-68 97.6 0 79.2 83.2 130.4 152.8 95.2zM228.8 691.2c-19.2-19.2-16-48.8 7.2-64 18.4-12 21.6-12 40 0 33.6 22.4 19.2 76.8-20 76.8-8 0-20.8-5.6-27.2-12.8zM537.6 662.4c2.4-18.4 2.4-18.4 185.6-20.8 186.4-1.6 201.6 0 191.2 28-3.2 8-42.4 10.4-192 10.4h-187.2l2.4-17.6zM196 368.8c-136.8-61.6-105.6-264.8 43.2-279.2 52.8-4.8 90.4 9.6 124 46.4 72 80 46.4 193.6-52.8 236-39.2 16-75.2 15.2-114.4-3.2zM301.6 328.8c100.8-46.4 62.4-200.8-49.6-200.8-75.2 0-124.8 93.6-85.6 161.6 12.8 23.2 64 54.4 89.6 54.4 6.4 0 27.2-7.2 45.6-15.2zM541.6 250.4c-3.2-2.4-5.6-12-5.6-20 0-13.6 11.2-14.4 187.2-14.4 190.4 0 200.8 1.6 191.2 30.4-3.2 7.2-47.2 9.6-185.6 9.6-100 0-184.8-2.4-187.2-5.6z" />
<glyph unicode="&#xe91f;" glyph-name="vote" d="M164 948.8c-32.8-14.4-66.4-55.2-72-87.2-3.2-15.2-4-79.2-2.4-143.2 2.4-103.2 4-120 19.2-139.2 36-48.8 52.8-55.2 156-57.6l95.2-3.2v-75.2c0-72.8-0.8-75.2-15.2-67.2-26.4 13.6-68 9.6-88-8.8-16-15.2-17.6-22.4-12.8-50.4 3.2-18.4 8-53.6 11.2-78.4 5.6-46.4 10.4-55.2 70.4-118.4l33.6-36 4.8-144h360l2.4 42.4c1.6 28.8 8.8 51.2 22.4 71.2 21.6 32 24 78.4 4 78.4-11.2 0-16.8-8-32-45.6l-8.8-22.4h-156c-150.4 0-156 0.8-156 16 0 8.8-21.6 39.2-48 68.8-26.4 28.8-49.6 60.8-51.2 70.4-1.6 8.8-7.2 38.4-12 64.8-9.6 51.2-4.8 63.2 23.2 58.4 22.4-3.2 28-13.6 41.6-74.4 8.8-39.2 13.6-48 26.4-48 15.2 0 16 6.4 20 174.4 4 184 8 199.2 41.6 180.8 12.8-6.4 14.4-23.2 16-153.6 2.4-139.2 3.2-145.6 18.4-145.6 14.4 0 16 6.4 18.4 60 2.4 84.8 6.4 96 29.6 96 24 0 27.2-11.2 29.6-100 2.4-57.6 4-64 18.4-64s16 6.4 18.4 52c2.4 66.4 6.4 84.8 21.6 90.4 24 9.6 36-16.8 36-81.6 0-61.6 8-83.2 28.8-75.2 8 3.2 11.2 18.4 11.2 50.4 0 44.8 12 72 32 72 14.4 0 24-31.2 24-75.2 0-39.2 1.6-44.8 16-44.8 20 0 27.2 27.2 22.4 80.8-5.6 52-26.4 74.4-68 73.6-21.6-0.8-32.8 3.2-40.8 15.2-15.2 20.8-43.2 30.4-70.4 23.2-16.8-4-26.4-1.6-36.8 8.8-8 8-26.4 14.4-42.4 14.4-25.6 0-28 1.6-28 23.2v24l179.2 2.4c197.6 2.4 200 3.2 240 57.6 15.2 20 16.8 32.8 16.8 160.8 0 152-2.4 160-55.2 199.2-21.6 16-32.8 16.8-355.2 18.4-264.8 1.6-338.4 0-357.6-8.8zM865.6 896.8l26.4-23.2v-267.2l-26.4-23.2-25.6-23.2h-170.4l-169.6 0.8-16 24.8c-8.8 14.4-25.6 28-36.8 31.2-29.6 7.2-69.6-11.2-76-36-4.8-20.8-4.8-20.8-96-20.8-88.8 0-91.2 0.8-116.8 23.2l-26.4 23.2v267.2l26.4 23.2 25.6 23.2h656l25.6-23.2zM688 0v-24h-288v48h288v-24zM739.2 204c-3.2-7.2-1.6-16.8 3.2-21.6 12-12 35.2-0.8 32 15.2-3.2 18.4-28.8 23.2-35.2 6.4z" />
<glyph unicode="&#xe920;" glyph-name="sign-up" d="M52 952.8c-40-16.8-48-37.6-50.4-130.4-3.2-103.2 0-121.6 28-147.2l20.8-19.2h923.2l20.8 19.2c28 25.6 31.2 44 28 148-2.4 84-3.2 89.6-24.8 110.4l-21.6 22.4-454.4 1.6c-249.6 0.8-460.8-1.6-469.6-4.8zM972 908c18.4-17.6 20-24.8 20-96 0-72.8-7.2-104.8-27.2-117.6-11.2-8-894.4-8-905.6 0-20 12.8-27.2 44.8-27.2 117.6 0 71.2 1.6 78.4 20 96l19.2 20h881.6l19.2-20zM147.2 868c-8-12.8-11.2-27.2-8-40s0.8-27.2-7.2-38.4c-16.8-24-15.2-51.2 3.2-61.6 8.8-4 32.8-8 52.8-8s44 4 52.8 8c18.4 10.4 20 37.6 3.2 61.6-8 11.2-10.4 25.6-7.2 38.4 8 32-15.2 60-48.8 60-20.8 0-31.2-4.8-40.8-20zM202.4 851.2c7.2-8-3.2-27.2-14.4-27.2-13.6 0-22.4 13.6-16 24 5.6 8.8 22.4 10.4 30.4 3.2zM210.4 777.6c16.8-18.4 10.4-25.6-22.4-25.6-13.6 0-28 2.4-30.4 5.6-7.2 6.4 17.6 34.4 30.4 34.4 5.6 0 15.2-6.4 22.4-14.4zM361.6 842.4c2.4-12 11.2-14.4 58.4-14.4 44.8 0 56 2.4 56 12s-12.8 12.8-58.4 14.4c-52.8 2.4-58.4 0.8-56-12zM362.4 779.2c-2.4-6.4-0.8-16 3.2-20s116-6.4 279.2-5.6c264.8 2.4 271.2 2.4 271.2 18.4s-6.4 16-274.4 18.4c-244 1.6-274.4 0.8-279.2-11.2zM27.2 572.8l-27.2-27.2v-195.2l54.4-54.4h915.2l54.4 54.4v195.2l-54.4 54.4h-915.2l-27.2-27.2zM975.2 547.2c14.4-18.4 16.8-32.8 16.8-99.2s-2.4-80.8-16.8-99.2l-16-20.8h-894.4l-16 20.8c-14.4 18.4-16.8 32.8-16.8 99.2s2.4 80.8 16.8 99.2l16 20.8h894.4l16-20.8zM96 526.4c-19.2-10.4-20-14.4-20-78.4s0.8-68 20-78.4c13.6-7.2 46.4-9.6 102.4-8 100 3.2 105.6 7.2 105.6 86.4s-5.6 83.2-105.6 86.4c-56 1.6-88.8-0.8-102.4-8zM213.6 480c-11.2-8.8-22.4-16-25.6-16s-14.4 7.2-25.6 16l-20.8 16h92.8l-20.8-16zM188 432c9.6 0 32.8 11.2 50.4 24l33.6 24v-80h-168v81.6l33.6-24.8c18.4-13.6 41.6-24.8 50.4-24.8zM361.6 482.4c2.4-12 11.2-14.4 58.4-14.4 44.8 0 56 2.4 56 12s-12.8 12.8-58.4 14.4c-52.8 2.4-58.4 0.8-56-12zM365.6 426.4c-3.2-2.4-5.6-9.6-5.6-16 0-8.8 52-10.4 280.8-10.4 262.4 0 280 0.8 277.6 14.4-2.4 12.8-23.2 13.6-275.2 16-149.6 0.8-274.4-0.8-277.6-4zM244 228.8c-46.4-20.8-92-88-92-134.4 0-60 37.6-119.2 92-143.2 28.8-13.6 56-15.2 268-15.2 262.4 0 278.4 3.2 322.4 55.2 20 24 37.6 69.6 37.6 96.8 0 52-46.4 121.6-93.6 140.8-36.8 16-499.2 15.2-534.4 0zM776 190.4c41.6-28.8 57.6-55.2 57.6-97.6 0-49.6-21.6-84.8-65.6-106.4-34.4-17.6-43.2-18.4-256-18.4s-221.6 0.8-256 18.4c-44 22.4-66.4 58.4-65.6 108 0 40.8 16.8 68 57.6 96 25.6 17.6 30.4 17.6 264 17.6s238.4 0 264-17.6zM529.6 111.2c-61.6-46.4-67.2-48.8-80.8-36-16 15.2-29.6 16.8-37.6 4-5.6-9.6 34.4-55.2 49.6-55.2s151.2 107.2 151.2 119.2c0 23.2-18.4 16-82.4-32z" />
<glyph unicode="&#xe921;" glyph-name="slide" d="M126.4 832c-16.8-16.8-31.2-24-50.4-24-72.8 0-76-12-76-255.2 0-196.8 0-200 18.4-220.8 13.6-16 28-22.4 56.8-25.6 21.6-3.2 40-9.6 42.4-16 10.4-27.2 47.2-34.4 176.8-34.4 102.4 0 129.6 2.4 137.6 12 20 24 0 28-130.4 28-71.2 0-134.4 3.2-140 6.4-7.2 5.6-9.6 62.4-8 258.4l2.4 251.2h712l2.4-251.2c1.6-196-0.8-252.8-8-258.4-5.6-3.2-68.8-6.4-140.8-6.4h-130.4l2.4-17.6c2.4-18.4 4.8-18.4 130.4-20.8 132-2.4 165.6 3.2 180 30.4 4.8 8.8 20.8 15.2 45.6 18.4 28 3.2 42.4 9.6 56 25.6 18.4 20.8 18.4 24 18.4 220.8 0 243.2-3.2 255.2-76 255.2-19.2 0-33.6 7.2-50.4 24l-24 24h-723.2l-24-24zM104 556v-212h-22.4c-40.8 0-41.6 4-41.6 216 0 108.8 2.4 200 5.6 202.4 2.4 3.2 16.8 5.6 32 5.6h26.4v-212zM982.4 564.8c1.6-140-0.8-202.4-7.2-209.6-4.8-6.4-19.2-11.2-32-11.2h-23.2v424.8l30.4-2.4 29.6-2.4 2.4-199.2zM205.6 593.6c-12-12-21.6-28-21.6-34.4 0-13.6 48-63.2 61.6-63.2 16.8 0 17.6 23.2 0.8 44l-16 20.8 17.6 19.2c9.6 10.4 15.2 22.4 12 27.2-8.8 15.2-32 9.6-54.4-13.6zM764 607.2c-3.2-4.8 2.4-16.8 12-27.2l17.6-19.2-16-20.8c-16.8-21.6-16-44 1.6-44 13.6 0 60.8 50.4 60.8 64 0 16-40.8 56-56.8 56-8 0-16.8-4-19.2-8.8zM497.6 278.4c1.6-10.4 8-18.4 14.4-18.4s12.8 8 14.4 18.4c2.4 13.6-1.6 17.6-14.4 17.6s-16.8-4-14.4-17.6zM232 169.6c-31.2-15.2-44.8-44-36.8-76 12-48 68-68.8 107.2-40.8 44.8 31.2 37.6 99.2-11.2 120-32.8 13.6-25.6 13.6-59.2-3.2zM284 131.2c15.2-16 12.8-34.4-5.6-46.4-30.4-18.4-62.4 28-33.6 48.8 18.4 13.6 23.2 12.8 39.2-2.4zM484 172.8c-24.8-10.4-44-40.8-44-69.6 0-25.6 42.4-63.2 72-63.2s72 37.6 72 64c0 29.6-22.4 61.6-48.8 71.2-14.4 4.8-25.6 8.8-26.4 8.8-0.8-0.8-12-5.6-24.8-11.2zM531.2 133.6c16.8-12.8 14.4-36-4.8-48.8-30.4-18.4-62.4 28-33.6 48.8 8 5.6 16.8 10.4 19.2 10.4s11.2-4.8 19.2-10.4zM731.2 172c-31.2-12.8-48-54.4-36-86.4 24-63.2 117.6-58.4 133.6 6.4 14.4 58.4-41.6 104.8-97.6 80zM779.2 133.6c28.8-20.8-3.2-67.2-32.8-48.8-19.2 12-21.6 30.4-6.4 46.4 16 15.2 20.8 16 39.2 2.4z" />
<glyph unicode="&#xe922;" glyph-name="timeline" d="M125.6 819.2c-3.2-3.2-5.6-50.4-5.6-104.8v-98.4h-47.2c-50.4 0-72.8-12-72.8-40 0-7.2 17.6-36.8 40-64.8 21.6-28 40-56.8 40-63.2s-18.4-35.2-40-63.2c-42.4-53.6-48-72-27.2-92 16.8-16.8 115.2-18.4 115.2-1.6 0 14.4-17.6 20.8-60.8 20.8-19.2 0-35.2 3.2-35.2 7.2s17.6 29.6 40 57.6c23.2 30.4 40 59.2 40 71.2s-16.8 40.8-40 71.2c-22.4 28-40 53.6-40 57.6s76.8 7.2 170.4 7.2h169.6l102.4-136-51.2-68-51.2-67.2-104-2.4c-91.2-2.4-104-4-106.4-16-2.4-13.6 8.8-14.4 145.6-14.4h148l2.4-101.6c2.4-84.8 4.8-102.4 14.4-102.4s12 17.6 14.4 101.6l2.4 102.4 209.6 1.6 209.6 2.4 54.4 68c29.6 37.6 56 76 58.4 86.4 5.6 20-11.2 48-74.4 125.6l-39.2 48-183.2 8-2.4 102.4c-1.6 83.2-4 101.6-13.6 101.6s-12-17.6-12-104v-104h-107.2c-70.4 0-109.6-3.2-113.6-8.8-9.6-16 16-23.2 86.4-23.2h69.6l48-61.6c27.2-34.4 48.8-68 48.8-74.4s-21.6-40-48.8-73.6l-48-62.4h-223.2l38.4 49.6c21.6 28 43.2 58.4 48.8 68.8 11.2 21.6 5.6 34.4-48 102.4-34.4 44-36.8 50.4-22.4 53.6 8 2.4 15.2 9.6 15.2 16.8 0 11.2-17.6 12.8-144 12.8h-143.2l-2.4 101.6c-2.4 93.6-8 118.4-24.8 101.6zM942.4 520.8c27.2-35.2 49.6-68 49.6-72.8s-22.4-37.6-49.6-72.8l-48.8-63.2h-111.2c-105.6 0-110.4 0.8-100.8 14.4 5.6 8 25.6 34.4 44.8 58.4 18.4 24.8 33.6 52.8 33.6 63.2s-15.2 38.4-33.6 63.2c-19.2 24-39.2 50.4-44.8 58.4-9.6 13.6-4.8 14.4 100.8 14.4h111.2l48.8-63.2zM201.6 810.4c2.4-11.2 11.2-14.4 42.4-14.4s40 3.2 42.4 14.4c2.4 11.2-4 13.6-42.4 13.6s-44.8-2.4-42.4-13.6zM771.2 815.2c-7.2-12 12-23.2 42.4-23.2 32.8 0 50.4 7.2 50.4 20.8s-84 16-92.8 2.4zM205.6 755.2c-3.2-3.2-5.6-10.4-5.6-16.8 0-8 18.4-10.4 76.8-10.4 68.8 0 76 1.6 73.6 14.4-2.4 11.2-13.6 13.6-71.2 16-37.6 0.8-70.4 0-73.6-3.2zM772 752c-11.2-18.4 8-24 80.8-24 68.8 0 76 1.6 73.6 14.4-2.4 11.2-13.6 13.6-76 16-44 1.6-75.2-0.8-78.4-6.4zM537.6 154.4c2.4-12.8 12-14.4 78.4-14.4 62.4 0 76 2.4 76 12s-15.2 12.8-78.4 14.4c-72 1.6-78.4 0.8-76-12zM541.6 98.4c-3.2-2.4-5.6-9.6-5.6-16 0-7.2 12.8-10.4 42.4-10.4 47.2 0 57.6 4.8 44.8 21.6-9.6 10.4-72 14.4-81.6 4.8z" />
<glyph unicode="&#xe923;" glyph-name="price-list" d="M304 852v-44h-304v-720h304v-88h120c100 0 120 1.6 120 12 0 9.6-19.2 12-105.6 13.6l-106.4 2.4-2.4 358.4-1.6 357.6h368v-72c0-58.4 2.4-72 12-72 8 0 12 8.8 12 28v28h272v-536h-272v224c0 192.8-1.6 224-12 224s-12-37.6-13.6-270.4l-2.4-269.6-29.6-2.4c-20-1.6-30.4-6.4-30.4-14.4s11.2-11.2 44-11.2h44v88h304v720h-304v88h-416v-44zM692 824v-44h-360l-2.4 35.2c-4.8 60-14.4 57.6 184 55.2l178.4-2.4v-44zM304 732v-44h-92c-86.4 0-92-0.8-92-16s5.6-16 92-16h92v-536h-272v536h28c22.4 0 28 3.2 28 16s-5.6 16-28 16h-28v88h272v-44zM992 732v-44h-272v88h272v-44zM360 824c0-10.4 5.6-16 16-16s16 5.6 16 16c0 10.4-5.6 16-16 16s-16-5.6-16-16zM424 824.8c0-12 4.8-16.8 16.8-16.8 20 0 17.6 26.4-3.2 30.4-9.6 1.6-13.6-2.4-13.6-13.6zM64 736c0-8.8 5.6-16 12-16s12 7.2 12 16c0 8.8-5.6 16-12 16s-12-7.2-12-16zM152 584c0-8-7.2-19.2-15.2-24-39.2-20.8-22.4-76.8 24.8-81.6 16.8-1.6 26.4-6.4 26.4-14.4 0-8.8-10.4-12.8-37.6-14.4-32-2.4-38.4-4.8-38.4-18.4 0-11.2 5.6-15.2 20-15.2 15.2 0 20-4 20-16.8 0-21.6 26.4-17.6 31.2 4.8 1.6 8.8 9.6 20.8 17.6 26.4 17.6 12 20 51.2 4.8 64.8-6.4 4.8-22.4 11.2-36.8 13.6-35.2 7.2-26.4 22.4 13.6 25.6 27.2 2.4 33.6 5.6 33.6 18.4 0 9.6-5.6 15.2-16 15.2s-16 5.6-16 16c0 10.4-5.6 16-16 16s-16-5.6-16-16zM88 284c0-9.6 13.6-12 76-12s76 2.4 76 12c0 9.6-13.6 12-76 12s-76-2.4-76-12zM89.6 194.4c4-20.8 30.4-23.2 30.4-3.2 0 12-4.8 16.8-16.8 16.8-11.2 0-15.2-4-13.6-13.6zM152 192c0-10.4 5.6-16 16-16s16 5.6 16 16c0 10.4-5.6 16-16 16s-16-5.6-16-16zM757.6 747.2c-11.2-12-4.8-27.2 11.2-27.2 11.2 0 15.2 4 13.6 13.6-2.4 14.4-16 21.6-24.8 13.6zM496 675.2c0-7.2-8-19.2-16.8-26.4-18.4-14.4-23.2-52-8.8-66.4 4.8-4.8 20-10.4 35.2-13.6 41.6-8.8 34.4-28-12-31.2-31.2-2.4-38.4-4.8-36-16 1.6-7.2 10.4-14.4 20.8-16 9.6-1.6 17.6-8 17.6-14.4s7.2-11.2 16-11.2c9.6 0 16 5.6 16 14.4 0 7.2 7.2 18.4 16 24 16.8 10.4 21.6 44.8 8.8 64-4 6.4-18.4 13.6-32 16-37.6 8-33.6 20.8 7.2 25.6 25.6 3.2 36.8 8 38.4 18.4 2.4 9.6-2.4 13.6-17.6 13.6s-20.8 4-20.8 16c0 10.4-5.6 16-16 16-9.6 0-16-5.6-16-12.8zM840.8 581.6c-4-10.4-12.8-23.2-20-28.8-15.2-12.8-16.8-52.8-3.2-61.6 4.8-3.2 20-8 33.6-11.2 37.6-7.2 32-27.2-8.8-30.4-28-2.4-34.4-5.6-34.4-18.4 0-9.6 5.6-15.2 15.2-15.2 8 0 16.8-7.2 19.2-16 5.6-20.8 29.6-20.8 29.6 0 0 8 7.2 19.2 15.2 24 37.6 20 24 71.2-23.2 84.8-36 10.4-30.4 22.4 12 25.6 29.6 2.4 36 5.6 36 18.4 0 11.2-5.6 15.2-20 15.2s-20 4-20 16c0 21.6-22.4 20-31.2-2.4zM392 372c0-10.4 18.4-12 120-12s120 1.6 120 12c0 10.4-18.4 12-120 12s-120-1.6-120-12zM392 280c0-15.2 5.6-16 120-16s120 0.8 120 16c0 15.2-5.6 16-120 16s-120-0.8-120-16zM784 284c0-9.6 13.6-12 76-12s76 2.4 76 12c0 9.6-13.6 12-76 12s-76-2.4-76-12zM392 192c0-15.2 5.6-16 120-16s120 0.8 120 16c0 15.2-5.6 16-120 16s-120-0.8-120-16zM784 191.2c0-11.2 4-15.2 13.6-13.6 20.8 4 23.2 30.4 3.2 30.4-12 0-16.8-4.8-16.8-16.8zM840 192c0-10.4 5.6-16 16-16s16 5.6 16 16c0 10.4-5.6 16-16 16s-16-5.6-16-16zM392 104c0-10.4 5.6-16 16-16s16 5.6 16 16c0 10.4-5.6 16-16 16s-16-5.6-16-16zM453.6 114.4c-11.2-10.4-4.8-26.4 10.4-26.4 10.4 0 16 5.6 16 16 0 15.2-16 21.6-26.4 10.4zM568 12c0-6.4 7.2-12 16-12s16 5.6 16 12c0 6.4-7.2 12-16 12s-16-5.6-16-12z" />
<glyph unicode="&#xe924;" glyph-name="question" d="M364 944.8c-168.8-48.8-308-190.4-351.2-357.6-19.2-75.2-16.8-195.2 5.6-273.6 80-275.2 383.2-426.4 656-326.4l49.6 17.6 98.4-34.4c115.2-40 153.6-43.2 181.6-14.4 28.8 28 25.6 66.4-14.4 181.6l-34.4 98.4 17.6 49.6c100 272.8-51.2 576-326.4 656-80.8 23.2-208 24.8-282.4 3.2zM643.2 868.8c172.8-62.4 292.8-232 292.8-411.2 0-53.6-16-126.4-40-179.2l-16.8-38.4 40.8-116.8c22.4-64.8 39.2-119.2 37.6-120.8s-56 15.2-120.8 37.6l-116.8 40.8-38.4-16.8c-52.8-24-125.6-40-179.2-40-179.2 0-348.8 120-411.2 292-87.2 240 63.2 510.4 316.8 568 72 16 165.6 10.4 235.2-15.2zM453.6 700c-65.6-16.8-109.6-72.8-109.6-139.2 0-28 3.2-33.6 20-37.6 26.4-6.4 42.4 7.2 48.8 41.6 5.6 32.8 36 64 67.2 71.2 29.6 6.4 74.4-13.6 88-40 28-52 1.6-104.8-60.8-124.8l-39.2-12.8-2.4-84.8c-1.6-78.4-0.8-85.6 14.4-93.6 11.2-6.4 20.8-6.4 32 0 13.6 7.2 16 16.8 16 64.8 0 52.8 0.8 56 20.8 63.2 68.8 26.4 102.4 80 97.6 156.8-2.4 41.6-7.2 56-27.2 80.8-41.6 52-100.8 71.2-165.6 54.4z" />
</font>
</defs>
</svg>
